<?xml version="1.0" encoding="utf-8"?>
<!-- Generator: Adobe Illustrator 25.2.0, SVG Export Plug-In . SVG Version: 6.00 Build 0)  -->
<svg version="1.1" id="katman_1" xmlns="http://www.w3.org/2000/svg" xmlns:xlink="http://www.w3.org/1999/xlink" x="0px" y="0px"
	 viewBox="0 0 650 150" style="enable-background:new 0 0 650 150;" xml:space="preserve">
<style type="text/css">
	.st0{display:none;opacity:9.390311e-03;}
	.st1{display:inline;}
	.st2{fill:#E6E6E6;}
	.st3{fill:#797979;}
	.st4{fill:#3E3C55;}
	.st5{fill:#FFFFFF;}
	.st6{fill:#5FBE91;}
	.st7{display:none;opacity:0.4742;}
	.st8{fill:#4D4D4D;}
	.st9{fill:#747474;}
	.st10{display:none;opacity:1.087934e-02;}
	.st11{fill:#8A8A8A;}
	.st12{fill:#4E4E4E;}
	.st13{display:none;opacity:1.057603e-02;}
	.st14{display:none;opacity:1.012066e-02;}
	.st15{fill:#5E5E5E;}
	.st16{display:none;opacity:0.8114;}
	.st17{display:none;opacity:9.095758e-03;}
	.st18{display:none;}
	.st19{display:none;opacity:2.063961e-02;}
	.st20{fill:#343434;}
	.st21{fill:#8B8B8B;}
	.st22{fill:#3B3B3A;}
	.st23{fill:#131313;}
	.st24{fill:#393939;}
	.st25{fill:#3999FA;}
	.st26{fill:#3A99FB;}
	.st27{display:none;opacity:2.587139e-02;}
	.st28{fill:#E60079;}
	.st29{display:none;opacity:2.537146e-02;}
	.st30{fill:#EC1B6C;}
	.st31{display:none;opacity:2.517080e-02;}
	.st32{fill:#00A6C4;}
	.st33{display:none;opacity:1.973308e-03;}
	.st34{fill:#0090FF;}
	.st35{fill:#529BEE;}
	.st36{display:none;opacity:2.397605e-02;}
</style>
<g transform="matrix(0.6700000166893005,0,0,0.6700000166893005,-69.53985595703125,38.55474853515625)" class="st0">
	<g transform="matrix(1,0,0,1,551.0499877929688,1412.6600341796875)" class="st1">
		<path class="st2" d="M66.8-436.9H-2.9l2.4-30.8h65L66.8-436.9z"/>
	</g>
	<g transform="matrix(1,0,0,1,551.802978515625,1431.77001953125)" class="st1">
		<path class="st2" d="M-7.3-452.4H71v-6.9H-7.3V-452.4z"/>
	</g>
	<g transform="matrix(1,0,0,1,551.552001953125,1253.81494140625)" class="st1">
		<path class="st3" d="M165.8-508.4H-102c-1.9,0-3.7,0.7-5.1,2.1c-1.3,1.3-2.1,3.2-2.1,5.1v163.5h282v-163.5c0-0.9-0.2-1.9-0.6-2.7
			c-0.3-0.9-0.9-1.6-1.5-2.3c-0.7-0.7-1.5-1.2-2.3-1.5C167.6-508.2,166.7-508.4,165.8-508.4z"/>
	</g>
	<g transform="matrix(1,0,0,1,551.552001953125,1379.3800048828125)" class="st1">
		<path class="st2" d="M-109.1-463.3v26.9c0,1,0.2,1.9,0.6,2.8c0.3,0.9,0.9,1.6,1.5,2.4c0.7,0.7,1.5,1.2,2.3,1.5
			c0.9,0.3,1.8,0.6,2.7,0.6h267.8c1.9,0,3.7-0.7,5.1-2.1c1.4-1.4,2.1-3.2,2.1-5.1v-26.9L-109.1-463.3L-109.1-463.3z"/>
	</g>
	<g transform="matrix(1,0,0,1,551.8040161132812,1255.074951171875)" class="st1">
		<path class="st2" d="M158.7-494.8H-95v143.1h253.8V-494.8z"/>
	</g>
	<g transform="matrix(1,0,0,1,551.8040161132812,1379.1300048828125)" class="st1">
		<path class="st4" d="M31.9-439.2c4,0,7.2-3.1,7.2-7c0-3.8-3.2-7-7.2-7c-4,0-7.2,3.1-7.2,7S27.9-439.2,31.9-439.2z"/>
	</g>
	<g transform="matrix(1,0,0,1,405.7760009765625,1173.135009765625)" class="st1">
		<path class="st5" d="M58.8-406.7c0.7,0,1.2-0.7,1.2-1.5s-0.6-1.5-1.2-1.5s-1.2,0.7-1.2,1.5S58.1-406.7,58.8-406.7z"/>
	</g>
	<g transform="matrix(1,0,0,1,412.05999755859375,1173.135009765625)" class="st1">
		<path class="st5" d="M57.7-406.7c0.8,0,1.5-0.7,1.5-1.5s-0.7-1.5-1.5-1.5s-1.5,0.7-1.5,1.5S56.8-406.7,57.7-406.7z"/>
	</g>
	<g transform="matrix(1,0,0,1,418.3429870605469,1173.135009765625)" class="st1">
		<path class="st5" d="M56.5-406.7c0.7,0,1.2-0.7,1.2-1.5s-0.6-1.5-1.2-1.5c-0.7,0-1.2,0.7-1.2,1.5S55.8-406.7,56.5-406.7z"/>
	</g>
	<g transform="matrix(1,0,0,1,551.301025390625,1252.5550537109375)" class="st1">
		<path class="st5" d="M151.8-482.9H-88v120.1h239.8V-482.9z"/>
	</g>
	<g transform="matrix(1,0,0,1,454.2850036621094,1228.60498046875)" class="st1">
		<path class="st2" d="M25.1-440.8c-0.2,0-0.4,0.1-0.6,0.2c-0.2,0.2-0.2,0.4-0.2,0.6v43.1c0,0.2,0.1,0.4,0.2,0.6
			c0.2,0.2,0.4,0.2,0.6,0.2h49.6c0.2,0,0.4-0.1,0.6-0.2s0.2-0.4,0.2-0.6V-440c0-0.2-0.1-0.5-0.2-0.6c-0.2-0.2-0.4-0.2-0.6-0.2H25.1z
			"/>
	</g>
	<g transform="matrix(1,0,0,1,551.552001953125,1228.85498046875)" class="st1">
		<path class="st2" d="M7.3-440.7c-0.2,0-0.4,0.1-0.6,0.2s-0.2,0.4-0.2,0.6v42.7c0,0.2,0.1,0.4,0.2,0.6s0.4,0.2,0.6,0.2h49.2
			c0.2,0,0.4-0.1,0.6-0.2s0.2-0.4,0.2-0.6v-42.7c0-0.2-0.1-0.4-0.2-0.6s-0.4-0.2-0.6-0.2H7.3z"/>
	</g>
	<g transform="matrix(1,0,0,1,648.5689697265625,1228.35498046875)" class="st1">
		<path class="st2" d="M-11-441c-0.2,0-0.4,0.1-0.6,0.2c-0.2,0.2-0.2,0.4-0.2,0.6v43.5c0,0.2,0.1,0.4,0.2,0.6s0.4,0.2,0.6,0.2h50
			c0.2,0,0.4-0.1,0.6-0.2s0.2-0.4,0.2-0.6v-43.5c0-0.2-0.1-0.4-0.2-0.6c-0.2-0.2-0.4-0.2-0.6-0.2H-11z"/>
	</g>
	<g transform="matrix(1,0,0,1,453.531005859375,1284.324951171875)" class="st1">
		<path class="st2" d="M26.8-430.4c-0.5,0-0.9,0.2-1.2,0.5s-0.5,0.7-0.5,1.1c0,0.4,0.2,0.8,0.5,1.1c0.3,0.3,0.7,0.5,1.2,0.5h46.5
			c0.5,0,0.9-0.2,1.2-0.5c0.3-0.3,0.5-0.7,0.5-1.1c0-0.4-0.2-0.9-0.5-1.1c-0.3-0.3-0.7-0.5-1.2-0.5
			C73.2-430.4,26.8-430.4,26.8-430.4z"/>
	</g>
	<g transform="matrix(1,0,0,1,437.6960144042969,1294.6600341796875)" class="st1">
		<path class="st6" d="M42.6-432.4c-0.5,0-0.9,0.2-1.2,0.6c-0.3,0.3-0.5,0.8-0.5,1.3c0,0.5,0.2,1,0.5,1.3c0.3,0.3,0.7,0.6,1.2,0.6
			h20.7c0.5,0,0.9-0.2,1.2-0.6c0.3-0.3,0.5-0.8,0.5-1.3c0-0.5-0.2-1-0.5-1.3c-0.3-0.3-0.7-0.6-1.2-0.6
			C63.3-432.4,42.6-432.4,42.6-432.4z"/>
	</g>
	<g transform="matrix(1,0,0,1,552.0560302734375,1284.324951171875)" class="st1">
		<path class="st2" d="M8.6-430.4c-0.5,0-0.9,0.2-1.2,0.5s-0.5,0.7-0.5,1.1c0,0.4,0.2,0.8,0.5,1.1c0.3,0.3,0.7,0.5,1.2,0.5h46.5
			c0.5,0,0.9-0.2,1.2-0.5c0.3-0.3,0.5-0.7,0.5-1.1c0-0.4-0.2-0.9-0.5-1.1c-0.3-0.3-0.7-0.5-1.2-0.5C55.1-430.4,8.6-430.4,8.6-430.4z
			"/>
	</g>
	<g transform="matrix(1,0,0,1,536.2210083007812,1294.6600341796875)" class="st1">
		<path class="st6" d="M24.4-432.4c-0.5,0-0.9,0.2-1.2,0.6c-0.3,0.3-0.5,0.8-0.5,1.3c0,0.5,0.2,1,0.5,1.3c0.3,0.3,0.7,0.6,1.2,0.6
			h20.7c0.5,0,0.9-0.2,1.2-0.6c0.3-0.3,0.5-0.8,0.5-1.3c0-0.5-0.2-1-0.5-1.3c-0.3-0.3-0.7-0.6-1.2-0.6
			C45.1-432.4,24.4-432.4,24.4-432.4z"/>
	</g>
	<g transform="matrix(1,0,0,1,648.0670166015625,1284.324951171875)" class="st1">
		<path class="st2" d="M-9.1-430.4c-0.5,0-0.9,0.2-1.2,0.5s-0.5,0.7-0.5,1.1c0,0.4,0.2,0.8,0.5,1.1c0.3,0.3,0.7,0.5,1.2,0.5h46.5
			c0.5,0,0.9-0.2,1.2-0.5c0.3-0.3,0.5-0.7,0.5-1.1c0-0.4-0.2-0.9-0.5-1.1c-0.3-0.3-0.7-0.5-1.2-0.5C37.3-430.4-9.1-430.4-9.1-430.4z
			"/>
	</g>
	<g transform="matrix(1,0,0,1,453.531005859375,1273.7349853515625)" class="st1">
		<path class="st2" d="M26.8-428.4c-0.5,0-0.9,0.2-1.2,0.5c-0.3,0.3-0.5,0.7-0.5,1.1c0,0.4,0.2,0.8,0.5,1.1c0.3,0.3,0.7,0.5,1.2,0.5
			h46.5c0.5,0,0.9-0.2,1.2-0.5c0.3-0.3,0.5-0.7,0.5-1.1c0-0.4-0.2-0.9-0.5-1.1c-0.3-0.3-0.7-0.5-1.2-0.5
			C73.2-428.4,26.8-428.4,26.8-428.4z"/>
	</g>
	<g transform="matrix(1,0,0,1,552.0560302734375,1273.7349853515625)" class="st1">
		<path class="st2" d="M8.6-428.4c-0.5,0-0.9,0.2-1.2,0.5c-0.3,0.3-0.5,0.7-0.5,1.1c0,0.4,0.2,0.8,0.5,1.1c0.3,0.3,0.7,0.5,1.2,0.5
			h46.5c0.5,0,0.9-0.2,1.2-0.5c0.3-0.3,0.5-0.7,0.5-1.1c0-0.4-0.2-0.9-0.5-1.1c-0.3-0.3-0.7-0.5-1.2-0.5
			C55.1-428.4,8.6-428.4,8.6-428.4z"/>
	</g>
	<g transform="matrix(1,0,0,1,648.0670166015625,1273.7349853515625)" class="st1">
		<path class="st2" d="M-9.1-428.4c-0.5,0-0.9,0.2-1.2,0.5c-0.3,0.3-0.5,0.7-0.5,1.1c0,0.4,0.2,0.8,0.5,1.1c0.3,0.3,0.7,0.5,1.2,0.5
			h46.5c0.5,0,0.9-0.2,1.2-0.5c0.3-0.3,0.5-0.7,0.5-1.1c0-0.4-0.2-0.9-0.5-1.1c-0.3-0.3-0.7-0.5-1.2-0.5
			C37.3-428.4-9.1-428.4-9.1-428.4z"/>
	</g>
	<g transform="matrix(1,0,0,1,632.4829711914062,1294.6600341796875)" class="st1">
		<path class="st6" d="M6.4-432.4c-0.5,0-0.9,0.2-1.2,0.6c-0.3,0.3-0.5,0.8-0.5,1.3c0,0.5,0.2,1,0.5,1.3c0.3,0.3,0.8,0.6,1.2,0.6h21
			c0.5,0,0.9-0.2,1.2-0.6c0.3-0.3,0.5-0.8,0.5-1.3c0-0.5-0.2-1-0.5-1.3c-0.3-0.3-0.8-0.6-1.2-0.6C27.5-432.4,6.4-432.4,6.4-432.4z"
			/>
	</g>
</g>
<g transform="matrix(0.6399999856948853,0,0,0.6399999856948853,-457.61920166015625,72.67938232421875)" class="st7">
	<g transform="matrix(1,0,0,1,1183.780029296875,1265.8790283203125)" class="st1">
		<path class="st8" d="M101.8-535.8H-35.1v183.4h136.8V-535.8z"/>
	</g>
	<g transform="matrix(1,0,0,1,1183.780029296875,1191.2049560546875)" class="st1">
		<path class="st9" d="M125.3-466.7H-58.5v72.8h183.9V-466.7z"/>
	</g>
	<g transform="matrix(1,0,0,1,1183.780029296875,1290.7760009765625)" class="st1">
		<path class="st9" d="M125.3-485.1H-58.5v72.8h183.9V-485.1z"/>
	</g>
	<g transform="matrix(1,0,0,1,1183.780029296875,1390.344970703125)" class="st1">
		<path class="st9" d="M125.3-503.5H-58.5v72.8h183.9V-503.5z"/>
	</g>
	<g transform="matrix(1,0,0,1,1183.780029296875,1191.2850341796875)" class="st1">
		<path class="st6" d="M125.3-435.9H-58.5v11.2h183.9V-435.9z"/>
	</g>
	<g transform="matrix(1,0,0,1,1183.780029296875,1290.85400390625)" class="st1">
		<path class="st6" d="M125.3-454.3H-58.5v11.2h183.9V-454.3z"/>
	</g>
	<g transform="matrix(1,0,0,1,1183.780029296875,1390.426025390625)" class="st1">
		<path class="st6" d="M125.3-472.7H-58.5v11.2h183.9V-472.7z"/>
	</g>
	<g transform="matrix(1,0,0,1,1252.625,1159.43994140625)" class="st1">
		<path class="st6" d="M20.6-420.3c2.4,0,4.2-1.9,4.2-4.2c0-2.3-1.9-4.2-4.2-4.2s-4.2,1.9-4.2,4.2C16.5-422.2,18.4-420.3,20.6-420.3
			z"/>
	</g>
	<g transform="matrix(1,0,0,1,1270.6949462890625,1159.43994140625)" class="st1">
		<path class="st6" d="M17.3-420.3c2.4,0,4.2-1.9,4.2-4.2c0-2.3-1.9-4.2-4.2-4.2s-4.2,1.9-4.2,4.2C13.1-422.2,15-420.3,17.3-420.3z"
			/>
	</g>
	<g transform="matrix(1,0,0,1,1288.7640380859375,1159.43994140625)" class="st1">
		<path class="st6" d="M14-420.3c2.4,0,4.2-1.9,4.2-4.2c0-2.3-1.9-4.2-4.2-4.2s-4.2,1.9-4.2,4.2C9.8-422.2,11.7-420.3,14-420.3z"/>
	</g>
	<g transform="matrix(1,0,0,1,1252.625,1257.300048828125)" class="st1">
		<path class="st6" d="M20.6-438.3c2.4,0,4.2-1.9,4.2-4.2c0-2.3-1.9-4.2-4.2-4.2s-4.2,1.9-4.2,4.2C16.5-440.2,18.4-438.3,20.6-438.3
			z"/>
	</g>
	<g transform="matrix(1,0,0,1,1270.6949462890625,1257.300048828125)" class="st1">
		<path class="st6" d="M17.3-438.3c2.4,0,4.2-1.9,4.2-4.2c0-2.3-1.9-4.2-4.2-4.2s-4.2,1.9-4.2,4.2C13.1-440.2,15-438.3,17.3-438.3z"
			/>
	</g>
	<g transform="matrix(1,0,0,1,1288.7640380859375,1257.300048828125)" class="st1">
		<path class="st6" d="M14-438.3c2.4,0,4.2-1.9,4.2-4.2c0-2.3-1.9-4.2-4.2-4.2s-4.2,1.9-4.2,4.2C9.8-440.2,11.7-438.3,14-438.3z"/>
	</g>
	<g transform="matrix(1,0,0,1,1252.625,1355.1500244140625)" class="st1">
		<path class="st6" d="M20.6-456.4c2.4,0,4.2-1.9,4.2-4.2c0-2.4-1.9-4.2-4.2-4.2s-4.2,1.9-4.2,4.2C16.5-458.3,18.4-456.4,20.6-456.4
			z"/>
	</g>
	<g transform="matrix(1,0,0,1,1270.6949462890625,1355.1500244140625)" class="st1">
		<path class="st6" d="M17.3-456.4c2.4,0,4.2-1.9,4.2-4.2c0-2.4-1.9-4.2-4.2-4.2s-4.2,1.9-4.2,4.2C13.1-458.3,15-456.4,17.3-456.4z"
			/>
	</g>
	<g transform="matrix(1,0,0,1,1288.7640380859375,1355.1500244140625)" class="st1">
		<path class="st6" d="M14-456.4c2.4,0,4.2-1.9,4.2-4.2c0-2.4-1.9-4.2-4.2-4.2s-4.2,1.9-4.2,4.2C9.8-458.3,11.7-456.4,14-456.4z"/>
	</g>
</g>
<g transform="matrix(1,0,0,1,-596.4180297851562,-462)" class="st10">
	<g transform="matrix(1,0,0,1,858.1649780273438,1406.77001953125)" class="st1">
		<path class="st11" d="M24.7-319c-0.3,0-0.6,0.1-0.8,0.3c-0.2,0.2-0.3,0.5-0.3,0.8v44.4c0,0.3,0.1,0.6,0.3,0.8
			c0.2,0.2,0.5,0.3,0.8,0.3h7.6c0.3,0,0.6-0.1,0.8-0.3c0.2-0.2,0.3-0.5,0.3-0.8v-44.4c0-0.3-0.1-0.6-0.3-0.8
			c-0.2-0.2-0.5-0.3-0.8-0.3H24.7z"/>
	</g>
	<g transform="matrix(1,0,0,1,935.1929931640625,1406.77001953125)" class="st1">
		<path class="st11" d="M10.4-319c-0.3,0-0.6,0.1-0.8,0.3c-0.2,0.2-0.3,0.5-0.3,0.8v44.4c0,0.3,0.1,0.6,0.3,0.8
			c0.2,0.2,0.5,0.3,0.8,0.3H18c0.3,0,0.6-0.1,0.8-0.3c0.2-0.2,0.3-0.5,0.3-0.8v-44.4c0-0.3-0.1-0.6-0.3-0.8
			c-0.2-0.2-0.5-0.3-0.8-0.3H10.4z"/>
	</g>
	<g transform="matrix(1,0,0,1,938.3270263671875,1334.2900390625)" class="st1">
		<path class="st11" d="M42.6-281.7l-57.9-4.5l46.2,7.8l11.1-2L42.6-281.7z"/>
	</g>
	<g transform="matrix(1,0,0,1,938.8489990234375,1334.6409912109375)" class="st1">
		<path class="st12" d="M30.8-279.4l11.1-1.9l0.1-0.2l0.5,0.1l-0.7,1.5l-11.1,1.9l-46.2-8.5l13.7,1.6L30.8-279.4z"/>
	</g>
	<g transform="matrix(1,0,0,1,777.4810180664062,1334.2900390625)" class="st1">
		<path class="st11" d="M72.2-281.7l-57.9-4.5l46.2,7.8l11.1-2L72.2-281.7z"/>
	</g>
	<g transform="matrix(1,0,0,1,776.697021484375,1334.6409912109375)" class="st1">
		<path class="st12" d="M60.7-279.4l11.1-1.9l0.1-0.2l0.5,0.1l-0.7,1.5l-11.1,1.9l-46.2-8.5l13.7,1.6L60.7-279.4z"/>
	</g>
	<g transform="matrix(1,0,0,1,897.85400390625,1373.7550048828125)" class="st1">
		<path class="st11" d="M92.8-298.1l-4.9,0.2l-44.8,18.9l-2.5,2.1l-8.2,6.8H6.8l-7.7-6.8l-2.9-2.6l-43.1-18.3l-3.8-0.4l12.8-6.2h0.1
			c2.9-2.8,28-4.9,58.5-4.9s55.6,2.1,58.5,4.9h0.2L92.8-298.1z"/>
	</g>
	<g transform="matrix(1,0,0,1,817.8209838867188,1346.405029296875)" class="st1">
		<path class="st11" d="M41.8-276.5c0.1-0.2,0.2-0.5,0.2-0.8v-10.1c0-0.7-0.2-1.2-0.7-1.7c-0.5-0.4-1.1-0.7-1.7-0.7h-1
			c0.8-0.8,1.3-1.8,1.5-2.9c0.2-1.1,0.1-2.3-0.3-3.3s-1.1-2-2.1-2.5c-1-0.7-2-1-3.2-1s-2.3,0.3-3.2,1c-1,0.7-1.7,1.5-2.1,2.5
			c-0.4,1.1-0.6,2.2-0.3,3.3c0.2,1.1,0.7,2.1,1.5,2.9h-1c-0.3,0-0.7,0.1-0.9,0.2c-0.3,0.1-0.6,0.3-0.8,0.5c-0.2,0.2-0.4,0.5-0.5,0.8
			c-0.1,0.2-0.2,0.6-0.2,0.9v10.1c0,0.4,0.1,0.8,0.3,1.2c-0.7,0.2-1.5,0.2-2.2,0.4c-0.4,0.1-0.8,0.3-1.1,0.7
			c-0.2,0.3-0.4,0.8-0.4,1.2v2.4c0,0.5,0.2,1.1,0.6,1.4c0.4,0.4,0.9,0.6,1.4,0.6h22.5v-6C46-275.9,43.9-276.3,41.8-276.5z"/>
	</g>
	<g transform="matrix(1,0,0,1,975.2739868164062,1346.405029296875)" class="st1">
		<path class="st11" d="M17.5-275.7c-0.7-0.2-1.5-0.3-2.2-0.4c0.2-0.3,0.3-0.7,0.3-1.2v-10.1c0-0.3-0.1-0.7-0.2-0.9
			c-0.1-0.3-0.3-0.6-0.5-0.8c-0.2-0.2-0.5-0.4-0.8-0.5c-0.3-0.2-0.6-0.2-0.9-0.2h-1c0.8-0.8,1.3-1.8,1.5-2.9
			c0.2-1.1,0.1-2.3-0.3-3.3c-0.4-1.1-1.1-2-2.1-2.5c-1-0.7-2-1-3.2-1s-2.3,0.3-3.2,1c-1,0.7-1.7,1.5-2.1,2.5
			c-0.4,1.1-0.6,2.2-0.3,3.3c0.2,1.1,0.7,2.1,1.5,2.9h-1c-0.3,0-0.7,0.1-0.9,0.2c-0.3,0.1-0.6,0.3-0.8,0.5c-0.2,0.2-0.4,0.5-0.5,0.8
			c-0.1,0.2-0.2,0.6-0.2,0.9v10.1c0,0.2,0.1,0.6,0.2,0.8c-2.1,0.2-4.2,0.7-6.3,1.1v6h22.5c0.5,0,1.1-0.2,1.4-0.6
			c0.4-0.3,0.6-0.9,0.6-1.4v-2.4c0-0.5-0.2-0.9-0.4-1.2C18.4-275.4,18-275.6,17.5-275.7z"/>
	</g>
	<g transform="matrix(1,0,0,1,1015.6179809570312,1334.2900390625)" class="st1">
		<path class="st11" d="M-29.6-281.7l57.9-4.5l-46.2,7.8l-11.1-2L-29.6-281.7z"/>
	</g>
	<g transform="matrix(1,0,0,1,896.0260009765625,1406.7049560546875)" class="st1">
		<path class="st11" d="M25.9-304.9h-9c-0.3,0-0.7,0.1-1,0.2c-0.3,0.2-0.6,0.3-0.8,0.6c-0.2,0.2-0.4,0.5-0.6,0.8
			c-0.2,0.3-0.2,0.7-0.2,1v2c0,0.5,0.2,1,0.5,1.5c0.3,0.4,0.7,0.7,1.2,0.9c-0.4,0.4-0.6,1-0.6,1.5v0.6c0,0.4,0.1,0.8,0.2,1.1
			c0.2,0.3,0.5,0.7,0.8,0.9v7.4h9.8v-7.4c0.3-0.2,0.6-0.6,0.8-0.9c0.2-0.3,0.2-0.7,0.2-1.1v-0.6c0-0.6-0.2-1.1-0.6-1.5
			c0.5-0.2,0.9-0.5,1.2-0.9c0.3-0.4,0.5-0.9,0.5-1.5v-2c0-0.3-0.1-0.7-0.2-1c-0.2-0.3-0.3-0.6-0.6-0.8c-0.2-0.2-0.5-0.4-0.8-0.6
			C26.6-304.8,26.2-304.9,25.9-304.9z"/>
	</g>
	<g transform="matrix(1,0,0,1,896.0260009765625,1425.97998046875)" class="st1">
		<path class="st12" d="M12.3-306.7c-0.4,0-0.8,0.2-1.1,0.4c-0.2,0.3-0.4,0.7-0.4,1.1v12.1c0,0.4,0.2,0.7,0.4,1.1
			c0.2,0.3,0.7,0.4,1.1,0.4h18.3c0.4,0,0.8-0.2,1.1-0.4c0.2-0.2,0.4-0.7,0.4-1.1v-12.1c0-0.4-0.2-0.8-0.4-1.1
			c-0.2-0.2-0.7-0.4-1.1-0.4H12.3z"/>
	</g>
	<g transform="matrix(1,0,0,1,896.2979736328125,1391.4649658203125)" class="st1">
		<path class="st12" d="M42.1-294.6l-8.2,6.8H8.4l-7.7-6.8h7.7l0.3-1.6c0.1-0.5,0.3-0.9,0.7-1.2c0.4-0.3,0.9-0.5,1.4-0.5h21.4
			c0.5,0,1,0.2,1.4,0.5c0.4,0.3,0.7,0.7,0.7,1.2l0.3,1.6H42.1z"/>
	</g>
	<g transform="matrix(1,0,0,1,896.0260009765625,1425.9849853515625)" class="st1">
		<path class="st11" d="M21.4-293.3c3.3,0,6-2.7,6-6s-2.7-6-6-6s-6,2.7-6,6C15.5-296,18.2-293.3,21.4-293.3z"/>
	</g>
	<g transform="matrix(1,0,0,1,896.0260009765625,1425.97998046875)" class="st1">
		<path class="st2" d="M21.4-295.8c1.9,0,3.4-1.5,3.4-3.4s-1.5-3.4-3.4-3.4c-1.9,0-3.4,1.5-3.4,3.4S19.5-295.8,21.4-295.8z"/>
	</g>
	<g transform="matrix(1,0,0,1,896.468994140625,1426.425048828125)" class="st1">
		<path class="st5" d="M23-302.3c0.5,0.7,0.7,1.5,0.7,2.3s-0.4,1.5-1,2.2c-0.6,0.6-1.4,0.9-2.2,1c-0.8,0.1-1.6-0.2-2.3-0.7
			c0.3,0.4,0.7,0.7,1.1,0.9c0.4,0.2,0.9,0.4,1.4,0.4s1,0,1.4-0.2c0.5-0.2,0.9-0.4,1.2-0.8c0.3-0.3,0.6-0.7,0.8-1.2
			c0.2-0.5,0.2-1,0.2-1.5c0-0.5-0.2-1-0.4-1.4C23.8-301.7,23.5-302.1,23-302.3z"/>
	</g>
	<g transform="matrix(1,0,0,1,896.6790161132812,1360.8599853515625)" class="st1">
		<path class="st2" d="M97.8-287.7H-55.1v1H97.8V-287.7z"/>
	</g>
	<g transform="matrix(1,0,0,1,1016.1389770507812,1334.6409912109375)" class="st1">
		<path class="st12" d="M-18-279.4l-11.1-1.9l-0.1-0.2l-0.6,0.1l0.7,1.5l11.1,1.9l46.2-8.4l-13.7,1.6L-18-279.4z"/>
	</g>
	<g transform="matrix(1,0,0,1,854.77001953125,1334.2900390625)" class="st1">
		<path class="st11" d="M0.1-281.7l57.9-4.5l-46.2,7.8l-11.1-2L0.1-281.7z"/>
	</g>
	<g transform="matrix(1,0,0,1,855.5540161132812,1334.6409912109375)" class="st1">
		<path class="st12" d="M11.7-279.4l-11.1-1.9l-0.1-0.2l-0.6,0.1l0.7,1.5l11.1,1.9l46.2-8.4l-13.7,1.6L11.7-279.4z"/>
	</g>
	<g transform="matrix(1,0,0,1,896.4169921875,1389.5150146484375)" class="st1">
		<path class="st2" d="M29.9-294.2h-17v3.4h17V-294.2z"/>
	</g>
</g>
<g transform="matrix(1,0,0,1,221.21600341796875,858.5)" class="st13">
	<g transform="matrix(1,0,0,1,33.779998779296875,40.112998962402344)" class="st1">
		<path class="st5" d="M14.5-302.6h30.3v31H14.5V-302.6z"/>
	</g>
	<g transform="matrix(1,0,0,1,78.53700256347656,38.84600067138672)" class="st1">
		<path class="st2" d="M6.2-304.8h30.3v35.8H6.2V-304.8z"/>
	</g>
	<g transform="matrix(1,0,0,1,124.13999938964844,41.380001068115234)" class="st1">
		<path class="st5" d="M-2.2-305.2h30.3v35.8H-2.2V-305.2z"/>
	</g>
	<g transform="matrix(1,0,0,1,47.29199981689453,71.35900115966797)" class="st1">
		<path class="st6" d="M12-300.2h30.3v14.5H12V-300.2z"/>
	</g>
	<g transform="matrix(1,0,0,1,111.47200012207031,71.35900115966797)" class="st1">
		<path class="st6" d="M0.1-300.2h30.3v14.5H0.1V-300.2z"/>
	</g>
	<g transform="matrix(1,0,0,1,79,53.5)" class="st1">
		<path class="st3" d="M84.5-293.2c-1.3-11.7-3.8-21.1-7.6-27.9c-5.5-10-12.4-12.1-17.2-12.1c-13.9,0-21.6,2.6-25.1,8.3
			c-0.5,0.7-1.3,1.1-2.2,1.1H9.8c-0.9,0-1.8-0.5-2.2-1.1c-3.5-5.8-11.3-8.3-25.1-8.3c-4.8,0-11.7,2.1-17.2,12.1
			c-3.8,6.8-6.3,16.2-7.6,27.9c-1.3,11.5-1.1,21,0.4,28.4c2,9.3,6.2,15.2,12.6,17.4c2,0.7,3.9,1,5.8,1c8.6,0,17-6.4,23.2-17.8
			c1.3,0.5,2.7,0.7,4.2,0.7c0.2,0,0.4,0,0.6,0c3.1-0.2,6-1.5,8.2-3.8c1.9-2.1,3-4.7,3-7.6h11v0.2c0.2,3.1,1.5,6,3.8,8.2
			c2.2,2,5,3,7.9,3c0.2,0,0.4,0,0.6,0c1.2-0.1,2.4-0.3,3.6-0.7c7.6,14,18.4,20.5,28.9,16.8c6.4-2.2,10.7-8.1,12.6-17.4
			C85.6-272.2,85.8-281.7,84.5-293.2z M58.4-313.2c2.6,0,4.7,2.1,4.7,4.7s-2.1,4.7-4.7,4.7s-4.7-2.1-4.7-4.7S55.8-313.2,58.4-313.2z
			 M7.2-317.4c0.8,0.2,1.7,0.4,2.7,0.4h22.6c0.9,0,1.8-0.2,2.7-0.4v11.7c0,2.4-2,4.4-4.4,4.4h-19c-2.4,0-4.4-2-4.4-4.4L7.2-317.4
			L7.2-317.4z M-10.2-295.9c-0.7,0-1.3,0.6-1.3,1.3v5.2c0,0.7-0.6,1.3-1.3,1.3h-6.8c-0.7,0-1.3-0.6-1.3-1.3v-5.2
			c0-0.7-0.6-1.3-1.3-1.3h-5.2c-0.7,0-1.3-0.6-1.3-1.3v-6.8c0-0.7,0.6-1.3,1.3-1.3h5.2c0.7,0,1.3-0.6,1.3-1.3v-5.5
			c0-0.7,0.6-1.3,1.3-1.3h6.8c0.7,0,1.3,0.6,1.3,1.3v5.5c0,0.7,0.6,1.3,1.3,1.3H-5c0.7,0,1.3,0.6,1.3,1.3v6.8c0,0.7-0.6,1.3-1.3,1.3
			H-10.2z M4.1-270.2c-1.4,0.1-2.7-0.4-3.7-1.3c-0.1-0.1-0.2-0.2-0.2-0.2c-0.1-0.1-0.1-0.1-0.2-0.2c-0.1-0.1-0.1-0.1-0.2-0.2
			s-0.2-0.2-0.2-0.2c0,0,0-0.1-0.1-0.1c-0.6-0.7-0.9-1.7-1-2.8c-0.1-2,0.9-3.7,2.4-4.6c0.7-0.4,1.5-0.7,2.4-0.7h0.3
			c0.1,0,0.2,0,0.3,0h0.1c0.3,0,0.7,0.1,0.9,0.2l0,0c0.2,0.1,0.3,0.1,0.4,0.2l0,0c1.2,0.5,2.1,1.4,2.7,2.6c0,0,0,0,0,0.1
			c0.2,0.6,0.4,1.2,0.5,1.9C9.2-272.7,7-270.3,4.1-270.2z M21.1-284.2c-2,0-3.6-1.6-3.6-3.6s1.6-3.6,3.6-3.6s3.6,1.6,3.6,3.6
			S23.1-284.2,21.1-284.2z M38.6-270.2c-2.9,0.2-5.2-2-5.4-4.9c-0.1-0.9,0.2-1.7,0.5-2.4c0,0,0,0,0-0.1c0.1-0.2,0.2-0.2,0.2-0.4
			c0,0,0,0,0-0.1c0.2-0.4,0.6-0.7,0.9-1.1l0,0c0.2-0.2,0.5-0.4,0.7-0.6c0,0,0,0,0.1,0c0.1-0.1,0.2-0.2,0.3-0.2c0,0,0.1,0,0.1-0.1
			c0.1-0.1,0.2-0.1,0.3-0.2h0.1c0.2-0.1,0.3-0.1,0.4-0.2c0.1,0,0.1,0,0.2,0c0.1,0,0.2-0.1,0.3-0.1c0.1,0,0.1,0,0.2,0
			c0.2,0,0.3,0,0.5-0.1h0.4h0.2c0.1,0,0.2,0,0.2,0c0.1,0,0.2,0,0.2,0s0.2,0,0.2,0.1c0.1,0,0.2,0,0.2,0.1c0.1,0,0.2,0.1,0.2,0.1
			s0.2,0.1,0.2,0.1c0.1,0,0.2,0.1,0.2,0.1c0.1,0,0.2,0.1,0.2,0.1s0.2,0.1,0.2,0.2c0.1,0,0.2,0.1,0.2,0.1c0.1,0.1,0.2,0.1,0.2,0.2
			c0.1,0.1,0.2,0.1,0.2,0.2c0.1,0.1,0.2,0.1,0.2,0.2c0.1,0.1,0.2,0.1,0.2,0.2c0.1,0.1,0.1,0.1,0.2,0.2c0.1,0.1,0.1,0.1,0.2,0.2
			c0.1,0.1,0.1,0.2,0.2,0.2c0.1,0.1,0.1,0.2,0.2,0.2c0.1,0.1,0.1,0.2,0.2,0.2c0.1,0.1,0.1,0.2,0.2,0.2c0.1,0.1,0.1,0.2,0.2,0.2
			c0,0.1,0.1,0.2,0.1,0.2s0.1,0.2,0.1,0.2s0.1,0.2,0.1,0.2s0.1,0.2,0.1,0.2c0,0.1,0.1,0.2,0.1,0.2s0.1,0.2,0.1,0.3s0,0.1,0,0.2
			c0,0.2,0.1,0.3,0.1,0.5v0.5l0,0c0,0.2,0,0.3-0.1,0.5v0.1c0,0.2-0.1,0.3-0.1,0.5l0,0c-0.2,0.8-0.7,1.5-1.1,2.1l-0.3,0.3
			c0,0-0.1,0-0.1,0.1C41-270.8,39.8-270.2,38.6-270.2z M45.9-300.7c0-2.6,2.1-4.7,4.7-4.7s4.7,2.1,4.7,4.7s-2.1,4.7-4.7,4.7
			S45.9-298.1,45.9-300.7z M58.4-288.3c-2.6,0-4.7-2.1-4.7-4.7c0-2.6,2.1-4.7,4.7-4.7s4.7,2.1,4.7,4.7S61-288.3,58.4-288.3z
			 M66.2-296c-2.6,0-4.7-2.1-4.7-4.7s2.1-4.7,4.7-4.7s4.7,2.1,4.7,4.7S68.8-296,66.2-296z"/>
	</g>
</g>
<g transform="matrix(1,0,0,1,186.28700256347656,-456)" class="st14">
	<g transform="matrix(1,0,0,1,113.71299743652344,1348.9749755859375)" class="st1">
		<path class="st15" d="M56.6-323.3h-0.8v-21.4c0-3.3-1.3-6.4-3.6-8.7c-2.3-2.3-5.5-3.6-8.7-3.6h-45c-1.6,0-3.2,0.3-4.7,1
			c-1.5,0.7-2.9,1.5-4,2.7c-1.1,1.1-2,2.5-2.7,4c-0.7,1.5-0.9,3.1-0.9,4.7v117.1c0,1.6,0.3,3.3,0.9,4.7c0.7,1.5,1.5,2.9,2.7,4
			s2.5,2,4,2.7c1.5,0.7,3.1,1,4.7,1h45c3.3,0,6.4-1.3,8.7-3.6c2.3-2.3,3.6-5.5,3.6-8.7v-80.7h0.8V-323.3z"/>
	</g>
	<g transform="matrix(1,0,0,1,113.71299743652344,1348.969970703125)" class="st1">
		<path class="st5" d="M44-353.8h-5.9c0.2,0.7,0.4,1.4,0.3,2.1c-0.1,0.7-0.3,1.4-0.7,2c-0.4,0.6-1,1.1-1.5,1.5
			c-0.7,0.3-1.3,0.5-2,0.5H8.3c-0.7,0-1.4-0.2-2-0.5c-0.7-0.3-1.1-0.8-1.5-1.5c-0.4-0.6-0.7-1.3-0.7-2c-0.1-0.7,0-1.5,0.3-2.1h-5.5
			c-2.4,0-4.8,1-6.5,2.7c-1.7,1.7-2.7,4.1-2.7,6.5v116.9c0,1.2,0.2,2.4,0.7,3.5c0.5,1.1,1.1,2.1,2,3s1.9,1.5,3,2
			c1.1,0.5,2.3,0.7,3.5,0.7H44c1.2,0,2.4-0.2,3.5-0.7c1.1-0.5,2.1-1.1,3-2c0.8-0.9,1.5-1.9,2-3c0.5-1.1,0.7-2.4,0.7-3.5v-116.9
			c0-1.2-0.2-2.4-0.7-3.5c-0.5-1.1-1.1-2.1-2-3c-0.8-0.8-1.9-1.5-3-2C46.4-353.5,45.2-353.8,44-353.8z"/>
	</g>
	<g transform="matrix(1,0,0,1,97.48200225830078,1320.333984375)" class="st1">
		<path class="st2" d="M37.6-303.4H11.2v45.2h26.3V-303.4z"/>
	</g>
	<g transform="matrix(1,0,0,1,132.5709991455078,1383.699951171875)" class="st1">
		<path class="st2" d="M28.8-318H6.9v51.1h21.9V-318z"/>
	</g>
	<g transform="matrix(1,0,0,1,132.63299560546875,1300.27001953125)" class="st1">
		<path class="st2" d="M28.9-283.3H6.9v12.4h21.9V-283.3z"/>
	</g>
	<g transform="matrix(1,0,0,1,132.63299560546875,1320.3399658203125)" class="st1">
		<path class="st2" d="M28.9-287.5H6.9v13.4h21.9V-287.5z"/>
	</g>
	<g transform="matrix(1,0,0,1,132.63299560546875,1340.4000244140625)" class="st1">
		<path class="st2" d="M28.9-290.7H6.9v12.4h21.9V-290.7z"/>
	</g>
	<g transform="matrix(1,0,0,1,97.52100372314453,1364.425048828125)" class="st1">
		<path class="st6" d="M37.5-298.8H11.2v19.7h26.3V-298.8z"/>
	</g>
	<g transform="matrix(1,0,0,1,97.52100372314453,1398.1300048828125)" class="st1">
		<path class="st2" d="M37.5-309H11.2v27.6h26.3V-309z"/>
	</g>
</g>
<g transform="matrix(1,0,0,1,-596.4180297851562,-462)" class="st16">
	<g transform="matrix(1,0,0,1,858.1649780273438,1406.77001953125)" class="st1">
		<path class="st11" d="M24.7-319c-0.3,0-0.6,0.1-0.8,0.3c-0.2,0.2-0.3,0.5-0.3,0.8v44.4c0,0.3,0.1,0.6,0.3,0.8
			c0.2,0.2,0.5,0.3,0.8,0.3h7.6c0.3,0,0.6-0.1,0.8-0.3c0.2-0.2,0.3-0.5,0.3-0.8v-44.4c0-0.3-0.1-0.6-0.3-0.8
			c-0.2-0.2-0.5-0.3-0.8-0.3H24.7z"/>
	</g>
	<g transform="matrix(1,0,0,1,935.1929931640625,1406.77001953125)" class="st1">
		<path class="st11" d="M10.4-319c-0.3,0-0.6,0.1-0.8,0.3c-0.2,0.2-0.3,0.5-0.3,0.8v44.4c0,0.3,0.1,0.6,0.3,0.8
			c0.2,0.2,0.5,0.3,0.8,0.3H18c0.3,0,0.6-0.1,0.8-0.3c0.2-0.2,0.3-0.5,0.3-0.8v-44.4c0-0.3-0.1-0.6-0.3-0.8
			c-0.2-0.2-0.5-0.3-0.8-0.3H10.4z"/>
	</g>
	<g transform="matrix(1,0,0,1,938.3270263671875,1334.2900390625)" class="st1">
		<path class="st11" d="M42.6-281.7l-57.9-4.5l46.2,7.8l11.1-2L42.6-281.7z"/>
	</g>
	<g transform="matrix(1,0,0,1,938.8489990234375,1334.6409912109375)" class="st1">
		<path class="st12" d="M30.8-279.4l11.1-1.9l0.1-0.2l0.5,0.1l-0.7,1.5l-11.1,1.9l-46.2-8.5l13.7,1.6L30.8-279.4z"/>
	</g>
	<g transform="matrix(1,0,0,1,777.4810180664062,1334.2900390625)" class="st1">
		<path class="st11" d="M72.2-281.7l-57.9-4.5l46.2,7.8l11.1-2L72.2-281.7z"/>
	</g>
	<g transform="matrix(1,0,0,1,776.697021484375,1334.6409912109375)" class="st1">
		<path class="st12" d="M60.7-279.4l11.1-1.9l0.1-0.2l0.5,0.1l-0.7,1.5l-11.1,1.9l-46.2-8.5l13.7,1.6L60.7-279.4z"/>
	</g>
	<g transform="matrix(1,0,0,1,897.85400390625,1373.7550048828125)" class="st1">
		<path class="st11" d="M92.8-298.1l-4.9,0.2l-44.8,18.9l-2.5,2.1l-8.2,6.8H6.8l-7.7-6.8l-2.9-2.6l-43.1-18.3l-3.8-0.4l12.8-6.2h0.1
			c2.9-2.8,28-4.9,58.5-4.9s55.6,2.1,58.5,4.9h0.2L92.8-298.1z"/>
	</g>
	<g transform="matrix(1,0,0,1,817.8209838867188,1346.405029296875)" class="st1">
		<path class="st11" d="M41.8-276.5c0.1-0.2,0.2-0.5,0.2-0.8v-10.1c0-0.7-0.2-1.2-0.7-1.7c-0.5-0.4-1.1-0.7-1.7-0.7h-1
			c0.8-0.8,1.3-1.8,1.5-2.9c0.2-1.1,0.1-2.3-0.3-3.3s-1.1-2-2.1-2.5c-1-0.7-2-1-3.2-1s-2.3,0.3-3.2,1c-1,0.7-1.7,1.5-2.1,2.5
			c-0.4,1.1-0.6,2.2-0.3,3.3c0.2,1.1,0.7,2.1,1.5,2.9h-1c-0.3,0-0.7,0.1-0.9,0.2c-0.3,0.1-0.6,0.3-0.8,0.5c-0.2,0.2-0.4,0.5-0.5,0.8
			c-0.1,0.2-0.2,0.6-0.2,0.9v10.1c0,0.4,0.1,0.8,0.3,1.2c-0.7,0.2-1.5,0.2-2.2,0.4c-0.4,0.1-0.8,0.3-1.1,0.7
			c-0.2,0.3-0.4,0.8-0.4,1.2v2.4c0,0.5,0.2,1.1,0.6,1.4c0.4,0.4,0.9,0.6,1.4,0.6h22.5v-6C46-275.9,43.9-276.3,41.8-276.5z"/>
	</g>
	<g transform="matrix(1,0,0,1,975.2739868164062,1346.405029296875)" class="st1">
		<path class="st11" d="M17.5-275.7c-0.7-0.2-1.5-0.3-2.2-0.4c0.2-0.3,0.3-0.7,0.3-1.2v-10.1c0-0.3-0.1-0.7-0.2-0.9
			c-0.1-0.3-0.3-0.6-0.5-0.8c-0.2-0.2-0.5-0.4-0.8-0.5c-0.3-0.2-0.6-0.2-0.9-0.2h-1c0.8-0.8,1.3-1.8,1.5-2.9
			c0.2-1.1,0.1-2.3-0.3-3.3c-0.4-1.1-1.1-2-2.1-2.5c-1-0.7-2-1-3.2-1s-2.3,0.3-3.2,1c-1,0.7-1.7,1.5-2.1,2.5
			c-0.4,1.1-0.6,2.2-0.3,3.3c0.2,1.1,0.7,2.1,1.5,2.9h-1c-0.3,0-0.7,0.1-0.9,0.2c-0.3,0.1-0.6,0.3-0.8,0.5c-0.2,0.2-0.4,0.5-0.5,0.8
			c-0.1,0.2-0.2,0.6-0.2,0.9v10.1c0,0.2,0.1,0.6,0.2,0.8c-2.1,0.2-4.2,0.7-6.3,1.1v6h22.5c0.5,0,1.1-0.2,1.4-0.6
			c0.4-0.3,0.6-0.9,0.6-1.4v-2.4c0-0.5-0.2-0.9-0.4-1.2C18.4-275.4,18-275.6,17.5-275.7z"/>
	</g>
	<g transform="matrix(1,0,0,1,1015.6179809570312,1334.2900390625)" class="st1">
		<path class="st11" d="M-29.6-281.7l57.9-4.5l-46.2,7.8l-11.1-2L-29.6-281.7z"/>
	</g>
	<g transform="matrix(1,0,0,1,896.0260009765625,1406.7049560546875)" class="st1">
		<path class="st11" d="M25.9-304.9h-9c-0.3,0-0.7,0.1-1,0.2c-0.3,0.2-0.6,0.3-0.8,0.6c-0.2,0.2-0.4,0.5-0.6,0.8
			c-0.2,0.3-0.2,0.7-0.2,1v2c0,0.5,0.2,1,0.5,1.5c0.3,0.4,0.7,0.7,1.2,0.9c-0.4,0.4-0.6,1-0.6,1.5v0.6c0,0.4,0.1,0.8,0.2,1.1
			c0.2,0.3,0.5,0.7,0.8,0.9v7.4h9.8v-7.4c0.3-0.2,0.6-0.6,0.8-0.9c0.2-0.3,0.2-0.7,0.2-1.1v-0.6c0-0.6-0.2-1.1-0.6-1.5
			c0.5-0.2,0.9-0.5,1.2-0.9c0.3-0.4,0.5-0.9,0.5-1.5v-2c0-0.3-0.1-0.7-0.2-1c-0.2-0.3-0.3-0.6-0.6-0.8c-0.2-0.2-0.5-0.4-0.8-0.6
			C26.6-304.8,26.2-304.9,25.9-304.9z"/>
	</g>
	<g transform="matrix(1,0,0,1,896.0260009765625,1425.97998046875)" class="st1">
		<path class="st12" d="M12.3-306.7c-0.4,0-0.8,0.2-1.1,0.4c-0.2,0.3-0.4,0.7-0.4,1.1v12.1c0,0.4,0.2,0.7,0.4,1.1
			c0.2,0.3,0.7,0.4,1.1,0.4h18.3c0.4,0,0.8-0.2,1.1-0.4c0.2-0.2,0.4-0.7,0.4-1.1v-12.1c0-0.4-0.2-0.8-0.4-1.1
			c-0.2-0.2-0.7-0.4-1.1-0.4H12.3z"/>
	</g>
	<g transform="matrix(1,0,0,1,896.2979736328125,1391.4649658203125)" class="st1">
		<path class="st12" d="M42.1-294.6l-8.2,6.8H8.4l-7.7-6.8h7.7l0.3-1.6c0.1-0.5,0.3-0.9,0.7-1.2c0.4-0.3,0.9-0.5,1.4-0.5h21.4
			c0.5,0,1,0.2,1.4,0.5c0.4,0.3,0.7,0.7,0.7,1.2l0.3,1.6H42.1z"/>
	</g>
	<g transform="matrix(1,0,0,1,896.0260009765625,1425.9849853515625)" class="st1">
		<path class="st11" d="M21.4-293.3c3.3,0,6-2.7,6-6s-2.7-6-6-6s-6,2.7-6,6C15.5-296,18.2-293.3,21.4-293.3z"/>
	</g>
	<g transform="matrix(1,0,0,1,896.0260009765625,1425.97998046875)" class="st1">
		<path class="st2" d="M21.4-295.8c1.9,0,3.4-1.5,3.4-3.4s-1.5-3.4-3.4-3.4c-1.9,0-3.4,1.5-3.4,3.4S19.5-295.8,21.4-295.8z"/>
	</g>
	<g transform="matrix(1,0,0,1,896.468994140625,1426.425048828125)" class="st1">
		<path class="st5" d="M23-302.3c0.5,0.7,0.7,1.5,0.7,2.3s-0.4,1.5-1,2.2c-0.6,0.6-1.4,0.9-2.2,1c-0.8,0.1-1.6-0.2-2.3-0.7
			c0.3,0.4,0.7,0.7,1.1,0.9c0.4,0.2,0.9,0.4,1.4,0.4s1,0,1.4-0.2c0.5-0.2,0.9-0.4,1.2-0.8c0.3-0.3,0.6-0.7,0.8-1.2
			c0.2-0.5,0.2-1,0.2-1.5c0-0.5-0.2-1-0.4-1.4C23.8-301.7,23.5-302.1,23-302.3z"/>
	</g>
	<g transform="matrix(1,0,0,1,896.6790161132812,1360.8599853515625)" class="st1">
		<path class="st2" d="M97.8-287.7H-55.1v1H97.8V-287.7z"/>
	</g>
	<g transform="matrix(1,0,0,1,1016.1389770507812,1334.6409912109375)" class="st1">
		<path class="st12" d="M-18-279.4l-11.1-1.9l-0.1-0.2l-0.6,0.1l0.7,1.5l11.1,1.9l46.2-8.4l-13.7,1.6L-18-279.4z"/>
	</g>
	<g transform="matrix(1,0,0,1,854.77001953125,1334.2900390625)" class="st1">
		<path class="st11" d="M0.1-281.7l57.9-4.5l-46.2,7.8l-11.1-2L0.1-281.7z"/>
	</g>
	<g transform="matrix(1,0,0,1,855.5540161132812,1334.6409912109375)" class="st1">
		<path class="st12" d="M11.7-279.4l-11.1-1.9l-0.1-0.2l-0.6,0.1l0.7,1.5l11.1,1.9l46.2-8.4l-13.7,1.6L11.7-279.4z"/>
	</g>
	<g transform="matrix(1,0,0,1,896.4169921875,1389.5150146484375)" class="st1">
		<path class="st2" d="M29.9-294.2h-17v3.4h17V-294.2z"/>
	</g>
</g>
<g transform="matrix(0.6399999856948853,0,0,0.6399999856948853,-457.61920166015625,72.67938232421875)" class="st17">
	<g transform="matrix(1,0,0,1,1183.780029296875,1265.8790283203125)" class="st1">
		<path class="st8" d="M101.8-535.8H-35.1v183.4h136.8V-535.8z"/>
	</g>
	<g transform="matrix(1,0,0,1,1183.780029296875,1191.2049560546875)" class="st1">
		<path class="st9" d="M125.3-466.7H-58.5v72.8h183.9V-466.7z"/>
	</g>
	<g transform="matrix(1,0,0,1,1183.780029296875,1290.7760009765625)" class="st1">
		<path class="st9" d="M125.3-485.1H-58.5v72.8h183.9V-485.1z"/>
	</g>
	<g transform="matrix(1,0,0,1,1183.780029296875,1390.344970703125)" class="st1">
		<path class="st9" d="M125.3-503.5H-58.5v72.8h183.9V-503.5z"/>
	</g>
	<g transform="matrix(1,0,0,1,1183.780029296875,1191.2850341796875)" class="st1">
		<path class="st6" d="M125.3-435.9H-58.5v11.2h183.9V-435.9z"/>
	</g>
	<g transform="matrix(1,0,0,1,1183.780029296875,1290.85400390625)" class="st1">
		<path class="st6" d="M125.3-454.3H-58.5v11.2h183.9V-454.3z"/>
	</g>
	<g transform="matrix(1,0,0,1,1183.780029296875,1390.426025390625)" class="st1">
		<path class="st6" d="M125.3-472.7H-58.5v11.2h183.9V-472.7z"/>
	</g>
	<g transform="matrix(1,0,0,1,1252.625,1159.43994140625)" class="st1">
		<path class="st6" d="M20.6-420.3c2.4,0,4.2-1.9,4.2-4.2c0-2.3-1.9-4.2-4.2-4.2s-4.2,1.9-4.2,4.2C16.5-422.2,18.4-420.3,20.6-420.3
			z"/>
	</g>
	<g transform="matrix(1,0,0,1,1270.6949462890625,1159.43994140625)" class="st1">
		<path class="st6" d="M17.3-420.3c2.4,0,4.2-1.9,4.2-4.2c0-2.3-1.9-4.2-4.2-4.2s-4.2,1.9-4.2,4.2C13.1-422.2,15-420.3,17.3-420.3z"
			/>
	</g>
	<g transform="matrix(1,0,0,1,1288.7640380859375,1159.43994140625)" class="st1">
		<path class="st6" d="M14-420.3c2.4,0,4.2-1.9,4.2-4.2c0-2.3-1.9-4.2-4.2-4.2s-4.2,1.9-4.2,4.2C9.8-422.2,11.7-420.3,14-420.3z"/>
	</g>
	<g transform="matrix(1,0,0,1,1252.625,1257.300048828125)" class="st1">
		<path class="st6" d="M20.6-438.3c2.4,0,4.2-1.9,4.2-4.2c0-2.3-1.9-4.2-4.2-4.2s-4.2,1.9-4.2,4.2C16.5-440.2,18.4-438.3,20.6-438.3
			z"/>
	</g>
	<g transform="matrix(1,0,0,1,1270.6949462890625,1257.300048828125)" class="st1">
		<path class="st6" d="M17.3-438.3c2.4,0,4.2-1.9,4.2-4.2c0-2.3-1.9-4.2-4.2-4.2s-4.2,1.9-4.2,4.2C13.1-440.2,15-438.3,17.3-438.3z"
			/>
	</g>
	<g transform="matrix(1,0,0,1,1288.7640380859375,1257.300048828125)" class="st1">
		<path class="st6" d="M14-438.3c2.4,0,4.2-1.9,4.2-4.2c0-2.3-1.9-4.2-4.2-4.2s-4.2,1.9-4.2,4.2C9.8-440.2,11.7-438.3,14-438.3z"/>
	</g>
	<g transform="matrix(1,0,0,1,1252.625,1355.1500244140625)" class="st1">
		<path class="st6" d="M20.6-456.4c2.4,0,4.2-1.9,4.2-4.2c0-2.4-1.9-4.2-4.2-4.2s-4.2,1.9-4.2,4.2C16.5-458.3,18.4-456.4,20.6-456.4
			z"/>
	</g>
	<g transform="matrix(1,0,0,1,1270.6949462890625,1355.1500244140625)" class="st1">
		<path class="st6" d="M17.3-456.4c2.4,0,4.2-1.9,4.2-4.2c0-2.4-1.9-4.2-4.2-4.2s-4.2,1.9-4.2,4.2C13.1-458.3,15-456.4,17.3-456.4z"
			/>
	</g>
	<g transform="matrix(1,0,0,1,1288.7640380859375,1355.1500244140625)" class="st1">
		<path class="st6" d="M14-456.4c2.4,0,4.2-1.9,4.2-4.2c0-2.4-1.9-4.2-4.2-4.2s-4.2,1.9-4.2,4.2C9.8-458.3,11.7-456.4,14-456.4z"/>
	</g>
</g>
<g transform="matrix(0.6700000166893005,0,0,0.6700000166893005,-69.53985595703125,38.55474853515625)" class="st18">
	<g transform="matrix(1,0,0,1,551.0499877929688,1412.6600341796875)" class="st1">
		<path class="st2" d="M66.8-436.9H-2.9l2.4-30.8h65L66.8-436.9z"/>
	</g>
	<g transform="matrix(1,0,0,1,551.802978515625,1431.77001953125)" class="st1">
		<path class="st2" d="M-7.3-452.4H71v-6.9H-7.3V-452.4z"/>
	</g>
	<g transform="matrix(1,0,0,1,551.552001953125,1253.81494140625)" class="st1">
		<path class="st3" d="M165.8-508.4H-102c-1.9,0-3.7,0.7-5.1,2.1c-1.3,1.3-2.1,3.2-2.1,5.1v163.5h282v-163.5c0-0.9-0.2-1.9-0.6-2.7
			c-0.3-0.9-0.9-1.6-1.5-2.3c-0.7-0.7-1.5-1.2-2.3-1.5C167.6-508.2,166.7-508.4,165.8-508.4z"/>
	</g>
	<g transform="matrix(1,0,0,1,551.552001953125,1379.3800048828125)" class="st1">
		<path class="st2" d="M-109.1-463.3v26.9c0,1,0.2,1.9,0.6,2.8c0.3,0.9,0.9,1.6,1.5,2.4c0.7,0.7,1.5,1.2,2.3,1.5
			c0.9,0.3,1.8,0.6,2.7,0.6h267.8c1.9,0,3.7-0.7,5.1-2.1c1.4-1.4,2.1-3.2,2.1-5.1v-26.9L-109.1-463.3L-109.1-463.3z"/>
	</g>
	<g transform="matrix(1,0,0,1,551.8040161132812,1255.074951171875)" class="st1">
		<path class="st2" d="M158.7-494.8H-95v143.1h253.8V-494.8z"/>
	</g>
	<g transform="matrix(1,0,0,1,551.8040161132812,1379.1300048828125)" class="st1">
		<path class="st4" d="M31.9-439.2c4,0,7.2-3.1,7.2-7c0-3.8-3.2-7-7.2-7c-4,0-7.2,3.1-7.2,7S27.9-439.2,31.9-439.2z"/>
	</g>
	<g transform="matrix(1,0,0,1,405.7760009765625,1173.135009765625)" class="st1">
		<path class="st5" d="M58.8-406.7c0.7,0,1.2-0.7,1.2-1.5s-0.6-1.5-1.2-1.5s-1.2,0.7-1.2,1.5S58.1-406.7,58.8-406.7z"/>
	</g>
	<g transform="matrix(1,0,0,1,412.05999755859375,1173.135009765625)" class="st1">
		<path class="st5" d="M57.7-406.7c0.8,0,1.5-0.7,1.5-1.5s-0.7-1.5-1.5-1.5s-1.5,0.7-1.5,1.5S56.8-406.7,57.7-406.7z"/>
	</g>
	<g transform="matrix(1,0,0,1,418.3429870605469,1173.135009765625)" class="st1">
		<path class="st5" d="M56.5-406.7c0.7,0,1.2-0.7,1.2-1.5s-0.6-1.5-1.2-1.5c-0.7,0-1.2,0.7-1.2,1.5S55.8-406.7,56.5-406.7z"/>
	</g>
	<g transform="matrix(1,0,0,1,551.301025390625,1252.5550537109375)" class="st1">
		<path class="st5" d="M151.8-482.9H-88v120.1h239.8V-482.9z"/>
	</g>
	<g transform="matrix(1,0,0,1,454.2850036621094,1228.60498046875)" class="st1">
		<path class="st2" d="M25.1-440.8c-0.2,0-0.4,0.1-0.6,0.2c-0.2,0.2-0.2,0.4-0.2,0.6v43.1c0,0.2,0.1,0.4,0.2,0.6
			c0.2,0.2,0.4,0.2,0.6,0.2h49.6c0.2,0,0.4-0.1,0.6-0.2s0.2-0.4,0.2-0.6V-440c0-0.2-0.1-0.5-0.2-0.6c-0.2-0.2-0.4-0.2-0.6-0.2H25.1z
			"/>
	</g>
	<g transform="matrix(1,0,0,1,551.552001953125,1228.85498046875)" class="st1">
		<path class="st2" d="M7.3-440.7c-0.2,0-0.4,0.1-0.6,0.2s-0.2,0.4-0.2,0.6v42.7c0,0.2,0.1,0.4,0.2,0.6s0.4,0.2,0.6,0.2h49.2
			c0.2,0,0.4-0.1,0.6-0.2s0.2-0.4,0.2-0.6v-42.7c0-0.2-0.1-0.4-0.2-0.6s-0.4-0.2-0.6-0.2H7.3z"/>
	</g>
	<g transform="matrix(1,0,0,1,648.5689697265625,1228.35498046875)" class="st1">
		<path class="st2" d="M-11-441c-0.2,0-0.4,0.1-0.6,0.2c-0.2,0.2-0.2,0.4-0.2,0.6v43.5c0,0.2,0.1,0.4,0.2,0.6s0.4,0.2,0.6,0.2h50
			c0.2,0,0.4-0.1,0.6-0.2s0.2-0.4,0.2-0.6v-43.5c0-0.2-0.1-0.4-0.2-0.6c-0.2-0.2-0.4-0.2-0.6-0.2H-11z"/>
	</g>
	<g transform="matrix(1,0,0,1,453.531005859375,1284.324951171875)" class="st1">
		<path class="st2" d="M26.8-430.4c-0.5,0-0.9,0.2-1.2,0.5s-0.5,0.7-0.5,1.1c0,0.4,0.2,0.8,0.5,1.1c0.3,0.3,0.7,0.5,1.2,0.5h46.5
			c0.5,0,0.9-0.2,1.2-0.5c0.3-0.3,0.5-0.7,0.5-1.1c0-0.4-0.2-0.9-0.5-1.1c-0.3-0.3-0.7-0.5-1.2-0.5
			C73.2-430.4,26.8-430.4,26.8-430.4z"/>
	</g>
	<g transform="matrix(1,0,0,1,437.6960144042969,1294.6600341796875)" class="st1">
		<path class="st6" d="M42.6-432.4c-0.5,0-0.9,0.2-1.2,0.6c-0.3,0.3-0.5,0.8-0.5,1.3c0,0.5,0.2,1,0.5,1.3c0.3,0.3,0.7,0.6,1.2,0.6
			h20.7c0.5,0,0.9-0.2,1.2-0.6c0.3-0.3,0.5-0.8,0.5-1.3c0-0.5-0.2-1-0.5-1.3c-0.3-0.3-0.7-0.6-1.2-0.6
			C63.3-432.4,42.6-432.4,42.6-432.4z"/>
	</g>
	<g transform="matrix(1,0,0,1,552.0560302734375,1284.324951171875)" class="st1">
		<path class="st2" d="M8.6-430.4c-0.5,0-0.9,0.2-1.2,0.5s-0.5,0.7-0.5,1.1c0,0.4,0.2,0.8,0.5,1.1c0.3,0.3,0.7,0.5,1.2,0.5h46.5
			c0.5,0,0.9-0.2,1.2-0.5c0.3-0.3,0.5-0.7,0.5-1.1c0-0.4-0.2-0.9-0.5-1.1c-0.3-0.3-0.7-0.5-1.2-0.5C55.1-430.4,8.6-430.4,8.6-430.4z
			"/>
	</g>
	<g transform="matrix(1,0,0,1,536.2210083007812,1294.6600341796875)" class="st1">
		<path class="st6" d="M24.4-432.4c-0.5,0-0.9,0.2-1.2,0.6c-0.3,0.3-0.5,0.8-0.5,1.3c0,0.5,0.2,1,0.5,1.3c0.3,0.3,0.7,0.6,1.2,0.6
			h20.7c0.5,0,0.9-0.2,1.2-0.6c0.3-0.3,0.5-0.8,0.5-1.3c0-0.5-0.2-1-0.5-1.3c-0.3-0.3-0.7-0.6-1.2-0.6
			C45.1-432.4,24.4-432.4,24.4-432.4z"/>
	</g>
	<g transform="matrix(1,0,0,1,648.0670166015625,1284.324951171875)" class="st1">
		<path class="st2" d="M-9.1-430.4c-0.5,0-0.9,0.2-1.2,0.5s-0.5,0.7-0.5,1.1c0,0.4,0.2,0.8,0.5,1.1c0.3,0.3,0.7,0.5,1.2,0.5h46.5
			c0.5,0,0.9-0.2,1.2-0.5c0.3-0.3,0.5-0.7,0.5-1.1c0-0.4-0.2-0.9-0.5-1.1c-0.3-0.3-0.7-0.5-1.2-0.5C37.3-430.4-9.1-430.4-9.1-430.4z
			"/>
	</g>
	<g transform="matrix(1,0,0,1,453.531005859375,1273.7349853515625)" class="st1">
		<path class="st2" d="M26.8-428.4c-0.5,0-0.9,0.2-1.2,0.5c-0.3,0.3-0.5,0.7-0.5,1.1c0,0.4,0.2,0.8,0.5,1.1c0.3,0.3,0.7,0.5,1.2,0.5
			h46.5c0.5,0,0.9-0.2,1.2-0.5c0.3-0.3,0.5-0.7,0.5-1.1c0-0.4-0.2-0.9-0.5-1.1c-0.3-0.3-0.7-0.5-1.2-0.5
			C73.2-428.4,26.8-428.4,26.8-428.4z"/>
	</g>
	<g transform="matrix(1,0,0,1,552.0560302734375,1273.7349853515625)" class="st1">
		<path class="st2" d="M8.6-428.4c-0.5,0-0.9,0.2-1.2,0.5c-0.3,0.3-0.5,0.7-0.5,1.1c0,0.4,0.2,0.8,0.5,1.1c0.3,0.3,0.7,0.5,1.2,0.5
			h46.5c0.5,0,0.9-0.2,1.2-0.5c0.3-0.3,0.5-0.7,0.5-1.1c0-0.4-0.2-0.9-0.5-1.1c-0.3-0.3-0.7-0.5-1.2-0.5
			C55.1-428.4,8.6-428.4,8.6-428.4z"/>
	</g>
	<g transform="matrix(1,0,0,1,648.0670166015625,1273.7349853515625)" class="st1">
		<path class="st2" d="M-9.1-428.4c-0.5,0-0.9,0.2-1.2,0.5c-0.3,0.3-0.5,0.7-0.5,1.1c0,0.4,0.2,0.8,0.5,1.1c0.3,0.3,0.7,0.5,1.2,0.5
			h46.5c0.5,0,0.9-0.2,1.2-0.5c0.3-0.3,0.5-0.7,0.5-1.1c0-0.4-0.2-0.9-0.5-1.1c-0.3-0.3-0.7-0.5-1.2-0.5
			C37.3-428.4-9.1-428.4-9.1-428.4z"/>
	</g>
	<g transform="matrix(1,0,0,1,632.4829711914062,1294.6600341796875)" class="st1">
		<path class="st6" d="M6.4-432.4c-0.5,0-0.9,0.2-1.2,0.6c-0.3,0.3-0.5,0.8-0.5,1.3c0,0.5,0.2,1,0.5,1.3c0.3,0.3,0.8,0.6,1.2,0.6h21
			c0.5,0,0.9-0.2,1.2-0.6c0.3-0.3,0.5-0.8,0.5-1.3c0-0.5-0.2-1-0.5-1.3c-0.3-0.3-0.8-0.6-1.2-0.6C27.5-432.4,6.4-432.4,6.4-432.4z"
			/>
	</g>
</g>
<g transform="matrix(0.6299999952316284,0,0,0.6299999952316284,-135.32937622070312,-10.194061279296875)" class="st19">
	<g transform="matrix(1,0,0,1,741.8179931640625,233.39300537109375)" class="st1">
		<path class="st20" d="M-17-328.3l-1.9,6.3v183.3l1.9,1.9l84.8-50.3L-17-328.3z"/>
	</g>
	<g transform="matrix(1,0,0,1,638.9840087890625,233.3939971923828)" class="st1">
		<path class="st21" d="M85.9-328.3L1.1-187.2l84.8,50.3v-89V-328.3z"/>
	</g>
	<g transform="matrix(1,0,0,1,742.343994140625,382.4119873046875)" class="st1">
		<path class="st22" d="M-17.5-269.7l-1.1,1.3v65.3l1.1,3.1l84.8-119.9L-17.5-269.7z"/>
	</g>
	<g transform="matrix(1,0,0,1,638.9840087890625,382.4110107421875)" class="st1">
		<path class="st21" d="M85.9-200.2v-69.6L1.1-320L85.9-200.2z"/>
	</g>
	<g transform="matrix(1,0,0,1,742.9520263671875,296.239990234375)" class="st1">
		<path class="st23" d="M-18.1-199.7L66.7-250l-84.8-38.7V-199.7z"/>
	</g>
	<g transform="matrix(1,0,0,1,638.9840087890625,296.239013671875)" class="st1">
		<path class="st24" d="M1.1-250l84.8,50.3v-89L1.1-250z"/>
	</g>
</g>
<g transform="matrix(0.38999998569488525,0,0,0.38999998569488525,15.647125244140625,179.59033203125)">
	<g transform="matrix(1,0,0,1,958.0390014648438,149.55299377441406)">
		<path class="st25" d="M-386.2-405.3l-21.9,78.8h-22.8l-30.5-115.4h25.1l18.2,83.6h0.6l21.6-83.6h20.4l21.6,83.6h0.6l18.3-83.6
			h25.1l-30.6,115.4h-22.8l-21.9-78.8C-385.5-405.3-386.2-405.3-386.2-405.3z M-276.9-342.1c10.1,0,18.5-6.6,18.5-15.9v-6.3
			l-18.1,1.1c-8.7,0.6-13.7,4.6-13.7,10.6C-290.1-346-284.8-342.1-276.9-342.1z M-284.5-325.2c-16.3,0-28.7-10.6-28.7-25.9
			c0-15.6,12-24.6,33.4-25.9l21.6-1.3v-5.6c0-8-5.6-12.6-14.4-12.6c-8.7,0-14.2,4.3-15.4,10.6h-21.4c0.9-16.6,15-28.1,37.8-28.1
			c22,0,36.3,11.4,36.3,28.6v59H-258v-13.2h-0.4C-263.3-330.5-273.8-325.2-284.5-325.2z M-219.8-441.9h23.4v115.4h-23.4V-441.9z
			 M-180.1-441.9h23.4v115.4h-23.4V-441.9z M-102.6-396.8c-10.2,0-17.6,7.8-18.4,18.4h36.4C-85-389.3-92.2-396.8-102.6-396.8z
			 M-84.2-352.7h21.5c-2.6,16.8-17.9,28.1-39.1,28.1c-26.4,0-42.2-16.9-42.2-44.3s16-45.1,41.3-45.1c25,0,40.7,16.9,40.7,42.9v7.2
			h-59.1v1.4c0,12.3,7.8,20.7,19.7,20.7C-93-342-86.5-346.2-84.2-352.7z M-43.9-432h23.4v19.8h15.8v17.6h-15.8v41
			c0,6.5,3.2,9.7,10.1,9.7c2.1,0,4.2-0.2,5.6-0.4v17.2c-2.4,0.5-6.4,1-11.1,1c-20.1,0-28-6.7-28-23.4v-45h-12.1v-17.6h12.1
			C-43.9-412.2-43.9-432-43.9-432z M61.1-324.5c-33.6,0-54.6-22.5-54.6-59.8c0-37.2,21.2-59.7,54.6-59.7c27.7,0,48.9,17.6,50.7,43.4
			H88.3C86-414.7,75.1-424,61.1-424c-18.3,0-30,15.3-30,39.5c0,24.6,11.6,39.8,30.1,39.8c14.3,0,24.6-8.4,27.2-22.1h23.5
			C109.1-340.8,89.4-324.5,61.1-324.5z M164.1-324.7c-25.9,0-42.5-16.6-42.5-44.7c0-27.7,16.8-44.6,42.5-44.6s42.5,16.8,42.5,44.6
			C206.6-341.3,190-324.7,164.1-324.7z M164.1-342.5c11.5,0,18.7-9.7,18.7-26.8c0-17-7.3-26.8-18.7-26.8c-11.4,0-18.8,9.8-18.8,26.8
			C145.3-352.2,152.6-342.5,164.1-342.5z M218.5-326.5v-85.7h22.5v15.3h0.4c4.6-10.6,13.6-16.9,26.8-16.9c19.1,0,29.7,12,29.7,32
			v55.3h-23.4v-50.4c0-11.2-5.3-17.6-15.7-17.6c-10.5,0-17.1,7.7-17.1,18.8v49.2H218.5z M312.9-326.5v-85.7h22.5v15.3h0.4
			c4.6-10.6,13.6-16.9,26.8-16.9c19.1,0,29.7,12,29.7,32v55.3H369v-50.4c0-11.2-5.3-17.6-15.7-17.6c-10.5,0-17.1,7.7-17.1,18.8v49.2
			H312.9z M445.7-396.8c-10.2,0-17.6,7.8-18.4,18.4h36.4C463.3-389.3,456.1-396.8,445.7-396.8z M464-352.7h21.5
			c-2.6,16.8-17.9,28.1-39.1,28.1c-26.4,0-42.2-16.9-42.2-44.3s16-45.1,41.3-45.1c25,0,40.7,16.9,40.7,42.9v7.2h-59.1v1.4
			c0,12.3,7.8,20.7,19.7,20.7C455.3-342,461.8-346.2,464-352.7z M576-380.4h-21.7c-1.3-9-7.3-15.4-16.9-15.4
			c-11.5,0-18.7,9.8-18.7,26.3c0,16.9,7.2,26.5,18.8,26.5c9.4,0,15.4-5.6,16.9-14.9h21.7c-1.2,20.2-16.3,33.3-38.8,33.3
			c-25.9,0-42.2-16.8-42.2-44.7c0-27.5,16.4-44.6,42.1-44.6C560.2-414.1,575-399.8,576-380.4z M593.6-432H617v19.8h15.8v17.6H617v41
			c0,6.5,3.2,9.7,10.1,9.7c2.1,0,4.2-0.2,5.6-0.4v17.2c-2.4,0.5-6.4,1-11.1,1c-20.1,0-28-6.7-28-23.4v-45h-12.1v-17.6h12.1
			L593.6-432L593.6-432z"/>
	</g>
	<g transform="matrix(1,0,0,1,194.28700256347656,119)">
		<path class="st26" d="M-111.8-466.4c69.2-67.7,181.3-67.7,250.5,0l8.3,8.1c3.5,3.4,3.5,8.9,0,12.3L118.6-418
			c-1.7,1.7-4.6,1.7-6.3,0l-11.5-11.2c-48.2-47.2-126.5-47.2-174.7,0l-12.3,12c-1.7,1.7-4.6,1.7-6.3,0l-28.5-27.9
			c-3.5-3.4-3.5-8.9,0-12.3L-111.8-466.4z M197.6-408.7l25.3,24.8c3.5,3.4,3.5,8.9,0,12.3L108.7-259.8c-3.5,3.4-9,3.4-12.5,0
			L15-339.2c-0.9-0.8-2.2-0.8-3.1,0l-81.1,79.5c-3.5,3.4-9,3.4-12.5,0l-114.3-111.8c-3.5-3.4-3.5-8.9,0-12.3l25.3-24.8
			c3.5-3.4,9-3.4,12.5,0l81.2,79.5c0.9,0.8,2.2,0.8,3.1,0l81.1-79.5c3.5-3.4,9-3.4,12.5,0l81.2,79.5c0.9,0.8,2.2,0.8,3.1,0
			l81.2-79.5C188.5-412.1,194.1-412.1,197.6-408.7z"/>
	</g>
</g>
<g transform="matrix(1.6299999952316284,0,0,1.6299999952316284,155.8493194580078,191.76559448242188)" class="st27">
	<g transform="matrix(1,0,0,1,86.01000213623047,20.88800048828125)" class="st1">
		<path class="st5" d="M-22.8-102.5c-2.7,0-5.3,1.2-6.9,3.4c-1.9,2.3-2.9,5.1-2.8,8.1c-0.1,1.9,0.5,3.8,1.7,5.1c1.1,1.3,2.9,2,4.6,2
			c2.6,0,5.1-1.2,6.6-3.3c2-2.4,3-5.3,3-8.4c0.1-1.8-0.4-3.6-1.5-5.1C-19-101.9-20.6-102.5-22.8-102.5z M-22.7-88.8
			c-0.9,0.9-2,1.4-3.3,1.4c-0.8,0.1-1.6-0.3-2.2-1c-0.6-0.8-0.8-1.7-0.8-2.7c-0.1-2,0.5-4.1,1.7-5.8c0.9-1.5,2.5-2.4,4.3-2.4
			c2,0,2.9,1.2,2.9,3.6C-20-93.1-21-90.6-22.7-88.8z M82.4-94c-0.8-0.2-1.7,0.1-2,0.9c-1.5,3.8-3.3,5.7-5.6,5.7
			c-1.2,0-1.8-1.1-1.8-3c0.2-2.2,0.5-4.4,1-6.6l0.5-2.3H79c0.8,0,1.5-0.6,1.6-1.4c0.2-0.9-0.4-1.8-1.3-2c-0.1,0-0.2,0-0.3,0h-3.9
			l0.8-3.8c0.2-1-0.4-1.9-1.4-2.1c-0.1,0-0.2,0-0.3,0c-0.8,0-1.5,0.6-1.7,1.4l-1,4.5H60.7c-2.8,0-5.3,1.3-6.9,3.5
			c-1.9,2.3-2.9,5.1-2.8,8.1c0,0.8,0.1,1.5,0.2,2.4c-0.7,0.8-1.7,1.3-2.9,1.4c-0.6,0.1-1.1-0.2-1.5-0.6c-0.3-0.6-0.5-1.3-0.4-2
			c0.1-2,0.3-3.9,0.8-5.8l2.9-13.1c0.2-0.9-0.3-1.9-1.3-2c-0.9-0.2-1.9,0.3-2,1.3l-1.6,8c-1.1-0.7-2.4-1.1-3.8-1.1
			c-2.7,0-5.3,1.1-7.1,3.3c-1.9,2.3-2.9,5.2-2.9,8.2c0,1,0.1,1.9,0.4,2.9c-0.7,0.6-1.5,0.9-2.4,0.9c-0.6,0.1-1.1-0.2-1.5-0.6
			c-0.4-0.6-0.6-1.2-0.5-2c0.1-1.3,0.2-2.6,0.6-3.9c0.2-1-0.4-1.9-1.4-2.1c-0.1,0-0.1,0-0.2,0c-0.9-0.1-1.7,0.5-1.9,1.3
			c-0.5,1.9-1.3,3.6-2.4,5.1c-0.8,1.2-2.1,2-3.6,2.1c-0.7,0-1.5-0.4-1.9-1.1c-0.5-0.9-0.7-1.9-0.7-2.9c-0.1-2,0.5-4.1,1.7-5.7
			c1-1.5,2.7-2.3,4.5-2.3c0.9,0,1.8,0.2,2.6,0.6c0.5,0.2,1.1,0.2,1.5-0.1c0.8-0.5,1.1-1.5,0.6-2.3c-0.2-0.3-0.5-0.6-0.8-0.7
			c-0.4-0.2-0.9-0.3-1.4-0.4c-0.8-0.2-1.7-0.3-2.5-0.4c-2.7,0-5.3,1.2-7,3.3c-1.1,1.1-1.8,2.5-2.2,4c-1.7,5.4-3.8,8-6.4,8
			c-0.7,0.1-1.5-0.2-2-0.9c-0.4-0.7-0.7-1.4-0.6-2.1c0-0.2,0-0.5,0.1-0.7c1.5-0.7,2.9-1.6,4-3c1-1.3,1.5-2.9,1.5-4.5
			c0-2.7-1.5-4.1-4.5-4.1c-2,0-4.1,0.8-5.5,2.3l1.9-8.6c0.2-0.9-0.4-1.9-1.3-2c-0.1,0-0.2,0-0.3,0c-0.8,0-1.5,0.6-1.7,1.4L-6.9-86
			c-0.2,0.9,0.4,1.8,1.3,2c0.1,0,0.2,0,0.3,0c0.8,0,1.5-0.7,1.6-1.4l1.5-7.3c0.2-1,0.7-1.9,1.1-2.8c0.6-1,1.4-1.9,2.3-2.6
			c1-0.8,2.2-1.3,3.4-1.2c0.7-0.1,1.2,0.3,1.3,1c0,0.1,0,0.2,0,0.3c-0.1,1.1-0.7,2.2-1.6,2.9c-1,0.9-2.2,1.5-3.5,1.7
			c-0.1,1.1-0.2,1.8-0.2,2.2c-0.1,1.9,0.5,3.8,1.5,5.2c1.1,1.3,2.7,2,4.3,1.9c2.3,0,4.5-1.1,6-2.9l0.7-0.8c0.2,0.7,0.6,1.2,1.1,1.7
			c1.1,1.3,2.7,2,4.3,2c2.4,0,4.3-1.1,6-3.3c0.7,2.3,2.4,3.3,5.1,3.3c1.5,0,3-0.6,4.2-1.5c1.1,1,2.4,1.5,3.9,1.5
			c2.4,0,4.3-1.1,6-3.3c0.7,2.3,2.4,3.3,5.1,3.3c1.7,0,3.4-0.7,4.6-1.8c1.1,1.2,2.8,1.9,4.4,1.8c2.6,0,5.1-1.2,6.6-3.3
			c2-2.4,3-5.3,3-8.4c0-1.2-0.2-2.4-0.7-3.7h4.5l-0.4,2c-0.6,2.3-0.9,4.6-1.1,6.9c0,4.2,1.7,6.4,5.1,6.4c3.9,0,6.8-2.6,8.9-7.7
			c0.3-0.8,0-1.7-0.7-2C82.5-94,82.5-94,82.4-94z M43.9-96c-0.6,3-1.5,5.1-2.7,6.6c-1.1,1.4-2.4,2.1-3.7,2.1c-0.7,0-1.5-0.4-1.9-1.1
			c-0.5-0.9-0.7-1.8-0.7-2.9c-0.1-2,0.5-4.1,1.7-5.7c1.5-2.4,4.6-3,6.9-1.5c0.2,0.2,0.4,0.3,0.7,0.5L43.9-96z M62.8-91.9
			c-0.5,1.1-1.1,2.2-2,3.2c-0.9,0.9-2,1.5-3.3,1.5c-0.8,0.1-1.6-0.3-2.2-1c-0.6-0.8-0.8-1.7-0.8-2.7c-0.1-2,0.5-4.1,1.7-5.8
			c1-1.5,2.5-2.4,4.3-2.4c2,0,2.9,1.2,2.9,3.6C63.5-94.4,63.2-93.2,62.8-91.9L62.8-91.9z M-8.1-111c-0.8,0-1.5,0.6-1.7,1.4
			l-5.1,23.6c-0.2,0.9,0.4,1.8,1.3,2c0.1,0,0.2,0,0.3,0c0.8,0,1.5-0.6,1.7-1.4l5.1-23.6c0.2-1-0.4-1.9-1.4-2
			C-7.9-110.9-8-110.9-8.1-111z M-44.2-116.2c-6.8,0-12.3,5.5-12.4,12.4c0,1.4,0.2,2.7,0.7,4c0.3,0.9,1.3,1.4,2.2,1.1
			c0.9-0.3,1.3-1.3,1.1-2.2c-0.3-1-0.6-2.1-0.5-3.2c0.2-4.9,4.2-8.8,9.2-8.6c4.9,0.2,8.8,4.2,8.6,9.2c-0.2,4.6-3.8,8.4-8.4,8.6
			c0,0-1.7,0.1-2.6,0.2c-0.3,0.1-0.7,0.1-1,0.2c-0.1,0-0.2,0-0.2,0c0-0.1,0-0.1,0-0.2l0.2-1.5l1.6-7.4c0.2-0.9-0.4-1.8-1.3-2
			c-0.9-0.2-1.8,0.4-2,1.3c0,0-3.9,18-3.9,18.2c-0.2,0.9,0.3,1.8,1.2,2h0.1c0.9,0.2,1.8-0.3,2-1.2v-0.1C-49.5-85.7-49-88-49-88
			c0.4-1.8,1.8-3.2,3.7-3.4c0.5,0.1,2-0.1,2-0.1c6.8-0.7,11.8-6.7,11.2-13.5C-32.7-111.3-37.9-116.1-44.2-116.2z"/>
	</g>
	<g transform="matrix(1,0,0,1,174.21600341796875,38.465999603271484)" class="st1">
		<path class="st28" d="M-2.2-105.3c-1.1-0.2-2.2,0.5-2.4,1.6l0,0c-0.2,1.1,0.5,2.2,1.5,2.4c0,0,0,0,0.1,0c1.1,0.2,2.2-0.4,2.4-1.5
			v-0.1C-0.4-103.9-1.1-105-2.2-105.3z"/>
	</g>
</g>
<g transform="matrix(0.16099999845027924,0,0,0.16099999845027924,140.20750427246094,118.52912139892578)" class="st29">
	<g transform="matrix(1,0,0,1,1180.260009765625,95.81800079345703)" class="st1">
		<path class="st30" d="M112-916c-1.8,1.2-2.7,1.9-3.6,2.5c-7.3,5.1-14.8,10.2-22.2,15.2c-0.7,0.4-1.5,0.5-2.2,0.8
			c0.5-0.5,0.9-1.1,1.5-1.5c7.9-5.7,15.9-11.4,23.8-17C109.7-916.2,110.5-916,112-916z"/>
	</g>
	<g transform="matrix(1,0,0,1,1099.6199951171875,203.57400512695312)" class="st1">
		<path class="st30" d="M109.4-921.3c-0.5-0.1-0.7-0.1-0.7-0.2c0.1-0.3,0-0.8,0.2-1.1c2.5-3.2,5.1-6.3,7.7-9.4
			c0.1-0.2,0.3-0.2,0.6-0.3c0,0.1,0.2,0.2,0.2,0.3C114.6-928.2,111.9-924.7,109.4-921.3z"/>
	</g>
	<g transform="matrix(1,0,0,1,1121.1500244140625,171.7899932861328)" class="st1">
		<path class="st30" d="M99-909.5c-0.5-0.2-0.6-0.2-0.7-0.2c0.1-0.3,0.1-0.8,0.3-1c2.9-2.9,5.8-5.7,8.6-8.6c0.2-0.2,3.4-3.8,3.7-3.9
			c1.1-1.1,8.7-9.1,0.7,0C108.6-919.8,102-912.6,99-909.5z"/>
	</g>
	<g transform="matrix(1,0,0,1,1135.2900390625,133.91099548339844)" class="st1">
		<path class="st30" d="M89.7-897.7c2-2.5,9.2-10.2,19.7-20.4c3-2.7,8.2-7.5,11.3-10.2c0.2-0.2,2-1.5,2.1-1.5c0,0.1-1.5,1.6-1.5,1.6
			C118.3-925.1,96.2-905.8,89.7-897.7z"/>
	</g>
	<g transform="matrix(1,0,0,1,1099.6800537109375,228.00799560546875)" class="st1">
		<path class="st30" d="M116.6-936c-2,3-4.1,6.1-6.2,9.1c-0.2,0.2-0.7,0.3-1.1,0.5c0-0.2-0.2-0.7,0-0.8
			C111.7-930.1,114.2-933,116.6-936z"/>
	</g>
	<g transform="matrix(1,0,0,1,1048.14501953125,255.7169952392578)" class="st1">
		<path class="st30" d="M125.6-941.5c-1.7,3.3-3.4,6.5-5.1,9.8c-0.2,0.2-0.7,0.4-1.1,0.6c-0.1-0.2-0.2-0.7-0.1-0.8
			C121.4-935.1,123.5-938.2,125.6-941.5z"/>
	</g>
	<g transform="matrix(1,0,0,1,1552.5450439453125,971.0960083007812)" class="st1">
		<path class="st30" d="M25.4-1067.8c1-0.2,1.9-0.7,2.9-0.7c1.6-0.2,3.3-0.2,5-0.3c-1.7,0.4-3.3,0.8-5.1,1.1
			C27.3-1067.8,26.3-1067.9,25.4-1067.8L25.4-1067.8z"/>
	</g>
	<g transform="matrix(1,0,0,1,1203.3349609375,80.88400268554688)" class="st1">
		<path class="st30" d="M95.6-904.9c-0.2,0.2-0.4,0.5-0.7,0.6c-0.9,0.5-1.9,0.9-2.9,1.5c0-0.2-0.1-0.7,0-0.7
			c1.1-0.5,2.2-1.1,3.3-1.5C95.4-905.1,95.5-905,95.6-904.9z"/>
	</g>
	<g transform="matrix(1,0,0,1,1158.97998046875,111.17900085449219)" class="st1">
		<path class="st30" d="M101-907.7c-0.6-0.7-0.7-0.9-0.7-0.9c1-0.9,2-1.9,3-2.8l0.4,0.3C102.8-910.1,102-909,101-907.7z"/>
	</g>
	<g transform="matrix(1,0,0,1,1110.875,214.61599731445312)" class="st1">
		<path class="st30" d="M112.5-929.8c-1.1,0.9-2,1.6-3,2.4c-0.1-0.2-0.3-0.4-0.3-0.4c0.9-0.8,1.8-1.5,2.8-2.4
			C111.9-930.2,112.2-929.9,112.5-929.8z"/>
	</g>
	<g transform="matrix(1,0,0,1,1129.5150146484375,184.73300170898438)" class="st1">
		<path class="st30" d="M106-922c0.3-0.3,0.7-0.7,1-0.9c0.6-0.5,1.1-0.9,1.6-1.5c0.1,0.1,0.2,0.1,0.2,0.2
			C107.9-923.4,106.9-922.7,106-922z"/>
	</g>
	<g transform="matrix(1,0,0,1,1090.7550048828125,200.2729949951172)" class="st1">
		<path class="st30" d="M113.9-925.8c0.4-0.4,0.7-0.7,1-0.9c0.1,0.1,0.2,0.3,0.2,0.3c-0.2,0.3-0.5,0.7-0.8,0.9
			C114.3-925.4,114.1-925.6,113.9-925.8z"/>
	</g>
	<g transform="matrix(1,0,0,1,1162.72998046875,153.7550048828125)" class="st1">
		<path class="st30" d="M101.4-918.2c0.3,0,0.7-0.1,1.1-0.1c-0.7,0.6-1.5,1.1-2.3,1.6C100.5-917.2,101-917.7,101.4-918.2z"/>
	</g>
	<g transform="matrix(1,0,0,1,1114.97998046875,844.1240234375)" class="st1">
		<path class="st30" d="M109.2-1045.9c0.7,0.7,1.2,1.3,1.8,2C110.4-1044.6,109.8-1045.2,109.2-1045.9z"/>
	</g>
	<g transform="matrix(1,0,0,1,1039.344970703125,257.4989929199219)" class="st1">
		<path class="st30" d="M125.2-938.8c-0.2,0.3-1.9,4-2,4.3c-0.1-0.2-0.3-0.4-0.2-0.5C123.1-935.3,125-938.6,125.2-938.8z"/>
	</g>
	<g transform="matrix(1,0,0,1,1104.574951171875,213.03799438476562)" class="st1">
		<path class="st30" d="M111.2-928c0.6-0.3,1.1-0.6,1.6-0.9C112.3-928.6,111.7-928.3,111.2-928z"/>
	</g>
	<g transform="matrix(1,0,0,1,1206.7650146484375,78.84100341796875)" class="st1">
		<path class="st30" d="M94.3-904.2c-0.7,0.4-1.5,0.9-2.2,1.3c-0.1-0.1-0.1-0.2-0.2-0.2c0.7-0.4,1.5-0.9,2.2-1.3
			C94.1-904.4,94.2-904.3,94.3-904.2z"/>
	</g>
	<g transform="matrix(1,0,0,1,1150.6199951171875,173.70799255371094)" class="st1">
		<path class="st30" d="M103.4-921.6c0.3,0,0.7-0.1,1.1-0.1c-0.7,0.3-1.2,0.6-1.9,0.9C102.9-921,103.1-921.2,103.4-921.6z"/>
	</g>
	<g transform="matrix(1,0,0,1,1077.7449951171875,793.4249877929688)" class="st1">
		<path class="st30" d="M117.4-1034.8c-0.3-0.4-0.7-0.9-1.1-1.3c0.2,0,0.3-0.1,0.3-0.1c0.3,0.4,0.6,0.8,0.8,1.2
			C117.5-1035,117.5-1034.9,117.4-1034.8z"/>
	</g>
	<g transform="matrix(1,0,0,1,1104.864990234375,221.39100646972656)" class="st1">
		<path class="st30" d="M111.5-929.4c0.2-0.4,0.5-0.8,0.7-1.2c0.1,0.1,0.2,0.2,0.3,0.2C112.1-930,111.8-929.7,111.5-929.4
			C111.4-929.4,111.5-929.4,111.5-929.4z"/>
	</g>
	<g transform="matrix(1,0,0,1,1546.0889892578125,971.9210205078125)" class="st1">
		<path class="st30" d="M31.8-1068.7c-0.9,0.2-1.8,0.2-2.7,0.4l0,0C30-1068.4,30.9-1068.6,31.8-1068.7L31.8-1068.7z"/>
	</g>
	<g transform="matrix(1,0,0,1,1268.0899658203125,970.593994140625)" class="st1">
		<path class="st30" d="M86-1066.9c1.5,0.6,2.9,1.1,4.4,1.8c0.2,0.3,0.6,0.6,0.8,0.9l0,0c-6.4-2.6-12.6-5.3-18.9-7.9
			C76.9-1070.4,81.4-1068.7,86-1066.9z"/>
	</g>
	<g transform="matrix(1,0,0,1,1069.3349609375,807.8410034179688)" class="st1">
		<path class="st30" d="M118.2-1039.2c0.2,0.7,0.4,1.2,0.7,1.9C118.6-1037.9,118.4-1038.5,118.2-1039.2z"/>
	</g>
	<g transform="matrix(1,0,0,1,1496.385009765625,35.150001525878906)" class="st1">
		<path class="st30" d="M95.7-892.5c-0.2,0-0.3-0.1-0.5-0.1c-3.5-0.4-10.8,2.7-38.3-4.6c-3.3-0.9-6.1-1.5-8.6-2
			c-5.5-0.6-11-1-16.2-1.3c-7,0.6-11.1,2.6-20.5,1.5c-5.1-0.6-10.4,0.1-14.6,1.1c-9.2,2.1-13.3,5.6,0,0c0.2-0.1,0.4-0.2,0.6-0.2
			c6.5-2.9,19.6-3.2,34.6-2.4c4-0.3,8.9-0.2,16.2,1.3c17.4,1.7,35.2,4.5,47,6.7C95.5-892.5,95.6-892.5,95.7-892.5z"/>
	</g>
	<g transform="matrix(1,0,0,1,1499.22998046875,506)" class="st1">
		<path class="st30" d="M354.9-737.1c1.3-1.7,2.6-3.3,3.9-5.1c0.8-1.2,1.5-2.4,2.4-3.5l0,0c1.4-2.1,2.9-4.2,4.2-6.4
			c0.9-1.3,1.8-2.6,2.8-3.9l0,0c1.1-1.4,2.1-2.8,3-4.2c3-4.8,6-9.7,8.8-14.7c1.1-2,2.2-4,3.3-6l0,0l0,0l0,0
			c4.3-7.8,8.6-15.7,12.4-23.8c3.3-7.2,6.2-14.5,9.1-21.9l0,0l0,0c1.1-2.9,2.2-5.7,3.3-8.5c0.3-0.9,0.7-1.8,1.1-2.7l0,0l0,0l0,0
			c1.7-4.2,3.3-8.4,4.7-12.7c2.9-9.1,5.5-18.3,7.9-27.6c0.1-0.5,0.2-0.9,0.3-1.4l0.2-0.8c2.4-9.3,5-18.7,6.8-28.1
			c1.8-9.1,3-18.3,4-27.6c1-9.1,1.7-18.3,1.8-27.4c0-3.9,0.1-8,0.2-12.1l0,0l0,0l0,0l0,0c0.2-8.3,0.2-16.9,0-24.9
			c-0.2-3.1-0.4-6.2-0.7-9.3l0,0c-0.4-6.7-0.8-13.3-1.8-19.9c-2.7-17.5-6-35.1-9.4-52.5c-10.2-52.6-36-101-68.3-143.2
			c-27.6-36-58-67.8-95.8-93.5c-54.2-37-111.2-61.3-177-70.9c-11.1-1.5-22.2-2.7-33.4-3.8c-2.6-0.2-5.2-0.5-7.8-0.7
			c-3.4-0.3-6.8-0.5-10.3-0.6c-1.6-0.1-3.2-0.2-4.8-0.2h-4.8H18h-1.3c-0.7,0.2-1.5,0.5-2.2,0.7c-0.1,0-0.2-0.1-0.4-0.2
			c-0.1,0-0.2-0.1-0.2-0.1c0.1-0.1,0.2-0.2,0.3-0.2c0.1-0.1,0.2-0.2,0.3-0.2h-2.2c-1.7,0.1-3.4,0.2-5.1,0.3
			c-2.5,0.2-5.1,0.3-7.7,0.5c-8.2,0.7-16.2,1.3-24.4,2c-1.7,0.2-3.3,0.2-5.1,0.4c-5.3,0.4-10.7,0.9-15.9,1.6
			c-8.2,1.2-16.4,2.8-24.4,4.7c-10.8,2.6-21.7,5.5-32.5,8.7c-2.6,0.8-5.1,1.9-7.7,3c-2,0.9-3.8,1.7-5.8,2.4c-2.8,1-5.5,1.8-8.4,2.6
			c-2.1,0.7-4.2,1.2-6.4,2c-0.5,0.2-1,0.6-1.4,1.1c-0.4,0.4-0.8,0.8-1.3,1c-2.4,1-4.9,2-7.3,2.9l0,0c-3.8,1.5-7.4,2.9-11.1,4.5
			c-6.6,2.9-13.1,6.2-19.6,9.5c-8,4.2-15.9,8.6-23.8,13.1c-0.8,0.5-1.5,1.2-2.1,1.9l0,0c-0.3,0.3-0.7,0.7-1,1.1
			c0.1,0,0.1,0.1,0.2,0.2c0,0,0,0.1,0.1,0.1c3.6-1.9,7.1-3.8,10.6-5.5c6.9-3.7,13.9-7.3,20.9-10.8c7.7-3.8,15.5-7.2,23.3-10.7l0,0
			c3.2-1.4,6.4-2.9,9.5-4.2c1.1-0.5,2.1-1,3.2-1.5c2.9-1.4,5.9-2.8,9-3.8c2.3-0.7,4.7-1.2,7.2-1.6c3.1-0.6,6.2-1.2,9.1-2.4l0.5-0.2
			l0.5-0.2c5.4-2,10.7-4.2,16.4-5.1c5.1-1,10.3-2.1,15.3-3.3c3.2-0.7,6.3-1.5,9.5-2.1c1.1-0.2,2.1-0.2,3.3-0.2
			c1.1,0,2.1-0.1,3.1-0.2c2.1-0.4,4.3-1,6.4-1.5c3.6-0.9,7.1-1.7,10.7-2.2c7.4-0.9,14.9-1.3,22.4-1.7c1.2-0.1,2.5-0.2,3.8-0.2
			c4.3-0.2,8.7-0.3,13-0.4c2.2-0.1,4.3-0.1,6.5-0.2c1,0,2-0.1,2.9-0.1c2.9-0.1,5.9-0.2,8.8-0.2c1.7,0,3.3,0.1,5.1,0.2
			c1.5,0.1,3,0.2,4.6,0.2c1.5,0,2.9,0,4.4-0.1c2.1-0.1,4.2-0.1,6.4,0c9.5,0.7,18.9,1.5,28.4,2.4c0.8,0.1,1.5,0.4,2.4,0.7
			c0.3,0.2,0.7,0.2,1,0.4c-0.4,0-0.7,0-1.1,0c-0.7,0-1.5,0.1-2.3,0.1c-1,0-1.9,0-2.9,0c-2.8-0.1-5.5-0.2-8.2-0.4
			c-5.5-0.2-10.9-0.6-16.4-0.7c-2.9-0.1-5.6-0.1-8.4-0.1c0.2,0,0.3-0.1,0.4-0.1c0.2,0,0.3-0.1,0.4-0.1c-0.2-0.1-0.3-0.2-0.5-0.2
			c-0.3-0.2-0.7-0.3-1.1-0.4c-2-0.1-4-0.2-6-0.2c-5.4-0.2-10.8-0.4-16.1-0.3c-10.8,0.3-21.6,0.9-32.4,1.9c-4.5,0.4-8.9,1.3-13.3,2.1
			c-2,0.4-4,0.7-6,1.1c-1.5,0.2-3,0.6-4.6,0.8l0,0c-3.3,0.6-6.8,1.2-10.1,1.8c-3.3,0.6-6.5,1.1-9.8,1.7c-8.3,1.5-16.6,2.9-24.9,4.7
			c-6.3,1.4-12.2,3.7-18.3,6c-7.4,2.9-14.8,6-22.3,9l0,0c-4.2,1.7-8.2,3.4-12.4,5.1c-2,0.8-4,1.5-6,2.3c-3.8,1.4-7.5,2.8-11.1,4.6
			c-9.5,4.6-19,9.6-28.2,14.9c-10.4,6-20.9,12.1-30.8,18.8c-3.3,2.2-6.1,5.1-9,8.1c-1.2,1.3-2.5,2.6-3.8,3.9
			c-0.4,0.4-0.7,0.7-1.1,1.1c-0.4,0.4-0.7,0.7-1.1,1.1c-1,0.8-2,1.7-3,2.5l0,0l0,0c-2.3,2-4.6,3.9-6.9,5.8c-1.7,1.4-3.5,2.8-5.3,4.2
			l0,0c-3.4,2.7-6.8,5.4-10.1,8.3c-1.7,1.5-3.2,3.4-4.6,5.3c-1,1.2-1.9,2.4-2.9,3.6c-2.7,2.9-5.5,5.9-8.3,8.8l0,0l0,0l0,0l0,0
			c-1.3,1.3-2.5,2.6-3.8,4c0,0.2,0,0.3,0,0.4l0,0c0,0.2,0,0.6,0,0.8c0,0.1-0.2,0.1-0.4,0.2c-0.1,0-0.2,0-0.2,0.1
			c0.1-0.2,0.2-0.4,0.2-0.6l0,0c0.1-0.2,0.2-0.4,0.2-0.6c-1.3,1.5-2.6,2.9-3.9,4.3c0.2-0.2,0.6-0.4,0.8-0.7c0.2-0.1,0.2-0.2,0.3-0.2
			l0.2,0.2c-0.2,0.2-0.4,0.2-0.7,0.4c-0.2,0.2-0.5,0.2-0.7,0.4c-0.6,0.8-1.2,1.6-1.8,2.4c-1.4,1.9-2.8,3.8-4.3,5.5
			c-2,2.3-4.1,4.5-6.2,6.8c-3.3,3.6-6.7,7.2-9.8,11c-2.1,2.6-4,5.5-5.8,8.5l0,0c-1,1.6-2,3.2-3,4.7c-2.6,3.9-5.3,8-8,12.1l0,0
			c-2.7,4.1-5.4,8.2-8,12.1c1.6-2.4,3.8-4.7,5.8-7.1c1.8-2,3.5-4.1,5-6c4.6-6.1,9.2-12.1,14-18c2.7-3.3,5.5-6.5,8.3-9.7l0,0l0,0l0,0
			l0,0l0,0c0.9-1,1.7-2,2.6-2.9c0.2-0.2,0.6-0.4,0.9-0.6c0.2-0.1,0.3-0.2,0.5-0.2c-0.1,0.2-0.1,0.4-0.1,0.6c-0.1,0.4-0.1,0.8-0.3,1
			c-0.5,0.5-1,1-1.5,1.5c-0.8,0.7-1.5,1.4-2.2,2.2c-4.1,5.5-8.1,11-12.1,16.6c-2.1,3.1-4,6.2-5.9,9.3l0,0c-1.5,2.6-3.1,5.2-4.8,7.7
			l-0.1,0.1c-0.1,0.1-0.1,0.1-0.1,0.2l0-0.2l-0.1,0.1c-0.1,0.2-0.3,0.5-1,1.4l0,0l0,0l0,0c0.3-0.2,0.4-0.4,0.6-0.6
			c0.2-0.2,0.3-0.3,0.7-0.7l0,0c0.5-0.7,1.1-1.5,1.5-2.2c2.1-3,4.2-6,6.5-8.9c2-2.6,4-5.2,6-7.7l0,0l0,0l0,0l0,0
			c6.4-8.2,12.6-16.5,19.6-24.2c9.5-10.7,19.6-20.8,29.6-30.8c0.8-0.8,1.6-1.6,2.4-2.4c6.6-6.6,13.7-13,20.8-19.1
			c2.4-2,5.1-3.8,7.7-5.6l0,0l0,0c1.5-1,3-2,4.5-3.1c1.9-1.4,3.8-2.8,5.6-4.2c3.2-2.4,6.4-4.8,9.7-7c4.5-2.9,9.1-5.7,13.7-8.5
			c3.2-2,6.4-3.8,9.5-5.8c15-9.4,30.8-17.3,47.4-23.7c2-0.8,4-1.6,6-2.4l0,0c7.2-2.9,14.3-5.8,21.6-8.3c8.4-2.9,16.9-5.4,25.4-7.8
			l0,0c1.3-0.4,2.7-0.7,4-1.1c4.8-1.4,9.7-2.7,14.6-3.6c3.1-0.6,6.2-0.9,9.3-1.3c2.6-0.3,5.3-0.7,8-1.1c2-0.3,4-0.8,6-1.3
			c2.3-0.6,4.6-1.1,6.9-1.4c6.3-0.8,12.6-1.5,19-2.1c2.6-0.2,5.2-0.6,7.8-0.8c0.7-0.1,1.5-0.2,2.2-0.2c2.1-0.2,4.3-0.6,6.4-0.6
			c3.8,0,7.5,0.1,11.3,0.1c2.3,0.1,4.5,0.1,6.8,0.1c2.4,0,4.9,0,7.3,0c6.1,0,12.2,0.1,18.3,0.2c0.9,0,1.9,0.4,2.9,0.7
			c0.3,0.2,0.7,0.2,1.1,0.4c-0.9,0-1.8,0.1-2.7,0.2c-2.1,0.1-4.2,0.2-6.4,0.2c-1.1,0-2.3-0.2-3.4-0.3c-1.4-0.2-2.8-0.4-4.2-0.3
			c-8.6,0.2-17.1,0.7-25.7,1.1c-1.3,0.1-2.5,0.2-3.8,0.2c-1.3,0.1-2.6,0.2-3.8,0.2c-6,0.3-12.1,0.6-18,1.1
			c-3.4,0.3-6.8,0.9-10.1,1.5c-2.4,0.4-4.8,0.8-7.3,1.1c-1.9,0.2-3.8,0.4-5.8,0.6c-2.9,0.2-5.9,0.5-8.8,1.1
			c-2.8,0.5-5.5,1.4-8.2,2.2c-1.8,0.6-3.7,1.1-5.5,1.6c-2.4,0.7-4.9,1.1-7.3,1.6c-4.4,1-8.9,1.9-13,3.3c-1.5,0.6-3.1,1.1-4.6,1.6
			c-16.6,5.8-33,11.7-49.2,18.5c-10.4,4.5-20.5,9.9-30.4,15.5c-2.9,1.6-6,3.3-9,4.9c-6.2,3.3-12.1,7-18,10.9
			c-7.2,4.8-14.2,9.8-21,15c-6,4.5-11.9,9.2-17.6,14.1c-3.7,3.2-7.2,6.5-10.8,9.9l0,0c-1.4,1.3-2.7,2.5-4.1,3.8
			c-0.4,0.4-0.7,0.9-1.1,1.4c-0.2,0.2-0.2,0.4-0.4,0.6c0.2-0.2,0.5-0.2,0.7-0.4c0.6-0.3,1.1-0.6,1.6-1c3.4-2.9,6.8-6,10.3-9l0,0
			c2-1.8,4.2-3.7,6.2-5.5c0.3-0.3,0.7-0.4,1.1-0.6c0.2-0.1,0.3-0.1,0.5-0.2c-0.2,0.2-0.2,0.3-0.3,0.5c-0.2,0.3-0.4,0.7-0.7,0.9
			c-2.4,2.3-4.9,4.5-7.4,6.7l0,0l0,0l0,0l0,0c-4.7,4.3-9.5,8.6-14.1,13c-6.2,6-12.2,12.3-18.3,18.5l0,0l0,0l0,0l0,0
			c-2,2-4,4.2-6,6.2c-0.2,0.2-0.5,0.7-0.7,1c-0.1,0.2-0.2,0.4-0.3,0.6c0.2-0.1,0.4-0.2,0.6-0.3c0.3-0.2,0.7-0.4,1-0.7
			c1.7-1.7,3.4-3.4,5.1-5.2c2.8-2.8,5.5-5.6,8.2-8.3l1-0.9c7.2-6.8,14.3-13.8,21.7-20.3c5-4.4,10.1-8.6,15.2-12.7l0,0
			c2.3-1.9,4.6-3.7,6.8-5.5c0.2-0.2,0.6-0.2,0.9-0.4c0.2-0.1,0.3-0.1,0.5-0.2c-0.1,0.2-0.2,0.3-0.2,0.5c-0.2,0.3-0.3,0.7-0.6,0.9
			c-2.2,1.9-4.5,3.7-6.7,5.5l0,0l0,0l0,0l0,0c-4.6,3.8-9.2,7.6-13.6,11.6c-7.8,7.1-15.5,14.4-22.8,21.9c-6.1,6.3-12,12.9-17.8,19.5
			c-1.2,1.4-2.4,2.7-3.6,4.1c-0.7,0.8-1.2,1.8-1.7,2.9c-0.4,0.8-0.8,1.5-1.3,2.3c-0.7,1-1.5,2-2.1,3l0,0
			c-15.4,21.4-30.8,43-41.7,67.2c-1.8,4-10,26.1-7.9,22c8-17.2,16.5-34.9,26.7-51c14.8-23.4,30.6-44.6,49.9-62.9
			c0.2-0.2,0.3-0.3,0.5-0.5l0,0c0.2-0.2,0.3-0.3,0.5-0.5l1.4-2c0.1,0.2,0.2,0.4,0.2,0.6c0.1,0.1,0.1,0.1,0.2,0.2c0,0,0.1,0,0.1,0.1
			c1.1-1.1,2.2-2.2,3.3-3.3l0,0c3.3-3.3,6.6-6.6,9.9-9.9c2.7-2.6,5.4-5.1,8.2-7.6l0,0l0,0l0,0c1-0.9,2-1.8,3-2.7
			c0.2-0.3,0.6-0.7,0.8-1.1l0,0c0.2-0.2,0.3-0.4,0.5-0.6c0.2-0.2,0.4-0.4,0.7-0.6c0.2-0.2,0.4-0.4,0.7-0.6c-0.1,0.3-0.1,0.7-0.1,0.9
			v0.1c0.4-0.2,0.9-0.5,1.3-0.8c3.9-2.9,7.7-5.9,11.7-8.8l0,0c9.5-7.2,18.8-14.4,28.6-21c9.9-6.8,20.6-12.6,31.3-18.4
			c9.6-5.1,19.4-10,29.5-14.2c12.1-5,24.4-9.4,36.8-13.2c13.3-4.1,26.7-7.7,40.4-10.5c35.5-7.1,71.3-8.7,107.4-5.5
			c30.2,2.7,59.7,8.6,88.5,18c9.9,3.3,19.5,6.9,28.9,11c-8-3.3-16.1-6.3-24.5-8.7c-1.4-0.5-2.9-1.1-4.5-1.6l0,0
			c-1.5-0.6-3-1.1-4.5-1.6c-2.6-0.8-5.7-1.9-8.2-2.5c-2.4-0.7-4.7-1.3-7.1-2c-5.5-1.5-11-3.2-16.5-4.3c-9.9-2-22.5-4.6-32.5-5.7
			c-16.1-1.8-27.4-2.5-44.6-3.2c-1.4,0-3.1,0-4.8,0c-3.8,0-8.1-0.1-11.1,0c-6.5,0.2-10.3,0.5-16.6,1.1l-0.4,0.1
			c-11.9,1.1-23.9,2.6-35.8,4.4c-11.1,1.6-22.2,3.8-33.2,6.1c-1.9,0.4-3.7,1.1-5.5,2c-1.3,0.6-2.5,1.1-3.8,1.5
			c-2.8,0.9-5.6,1.7-8.5,2.5c-5.1,1.5-10.1,2.9-14.9,4.7c-11.6,4.3-23.1,9.1-34.3,14.2c-9.9,4.5-19.5,9.3-28.9,14.6
			c-6.4,3.5-12.4,7.5-18.4,11.5l0,0c-1.6,1.1-3.3,2.2-5,3.3c-2.1,1.4-4.2,2.9-6.2,4.5l0,0c-0.7,0.6-1.5,1.1-2.2,1.7
			c-3,2.3-6,4.5-8.9,6.8l0,0l0,0l0,0l0,0l0,0c-2.9,2.3-6,4.5-8.9,6.7c-1.2,0.9-2.5,1.8-3.8,2.8c-2.6,1.9-5.3,3.8-7.7,6
			c-7.7,7.2-15.2,14.5-22.7,21.9l0,0l0,0c-1.2,1.1-2.4,2.4-3.6,3.5c-3.8,3.8-7.5,7.7-11.2,11.6c-2,2.2-4,4.6-5.9,6.9l0,0l0,0
			c-0.3,0.3-0.6,0.7-0.9,1.1c-0.2,0.2-0.2,0.7-0.2,1c0,0.2,0,0.4,0,0.6c0.2-0.1,0.4-0.1,0.6-0.2c0.5-0.1,0.9-0.2,1.1-0.4
			c0.7-0.7,1.2-1.5,1.8-2.4c0.7-1,1.4-2,2.2-2.9c1.5-1.5,2.9-3,4.4-4.5c1.1-1,2-2,3.1-3.1c3.6-3.8,7.3-7.6,10.8-11.3l0,0l0,0l0,0
			l0,0c1.7-1.9,3.5-3.7,5.2-5.5l0.8-0.8c0.2-0.1,0.4-0.1,0.6-0.2c0.3-0.1,0.6-0.2,0.9-0.2c2-1.8,3.9-3.7,5.8-5.5
			c4.1-3.9,8.1-7.8,12.5-11.3c11.4-9,23.2-17.4,35.1-25.8c5.8-4.1,11.9-7.7,17.9-11.3c0.8-0.5,1.6-0.9,2.4-1.4
			c3.2-1.9,6.5-3.6,9.8-5.4c1.6-0.9,3.3-1.7,5-2.6c0.2-0.2,0.6-0.3,0.8-0.5s0.6-0.3,0.8-0.5c0,0.2,0,0.5-0.1,0.8l0,0
			c2-1,4.1-2,6-2.9l0,0c4.2-2,8.3-4,12.6-5.9c8.9-3.8,17.8-7.7,26.9-11c8.6-3.1,17.4-5.8,26.3-8c0.7-0.2,1.3-0.3,2-0.5
			c12.5-3.1,25-6.1,37.8-8c16.7-2.4,33.6-4.2,50.5-5.1c20.5-1,40.9,0.2,61.2,2.9c23.2,3.1,45.8,8.2,68.1,15.3
			c25.6,8.1,50.2,18.5,73.1,32.5c16,9.7,31.4,20.3,46.2,31.7c13.5,10.6,26.3,22.5,38.7,34.6c16.9,16.5,31.1,35.2,44,55
			c24.6,37.5,42.4,78,52.6,121.7c8.9,38.6,11.7,77.5,8.7,116.9c-2.1,28-7.3,55.4-15.5,82.2c-10.7,34.7-26.3,67.3-46.2,97.6
			c-15.7,23.7-33.8,45.5-54.2,65.2c-21.4,20.5-44.9,38.2-70.9,52.6c-1.8,1-3.7,2-5.5,3.1l0,0c-9,5.1-17.9,10-27.4,14.2
			c-16.1,7-32.5,13.1-48.9,19.1c-8.1,2.9-16.4,5.1-24.8,7c-7.1,1.6-14.3,2.9-21.5,4.2l0,0l0,0l0,0l0,0c-3.1,0.6-6.1,1.1-9.1,1.7
			c-1.1,0.2-2,0.3-3.1,0.6l0,0l0,0c-0.2,0-0.4,0.1-0.7,0.1c-0.3,0.1-0.7,0.1-0.9,0.2c0.7-0.2,1.3-0.5,2-0.7c0.7-0.2,1.3-0.5,2-0.7
			c0.1,0,0.1-0.1,0.2-0.2h0.1l0,0l0,0c-2.4,0.2-4.8,0.6-7.2,0.8c-6.5,0.7-13,1.5-19.6,2.4c-23,3.2-46.1,2.4-69.1,0.9
			c-24.5-1.6-48.7-6-72.2-13c-55.6-16.6-105.8-42.6-150-80.6c-20-17.2-38.6-35.9-55.7-56c-0.3-0.4-0.8-0.7-1.2-0.9
			c-0.2-0.1-0.3-0.2-0.6-0.3c0.1,0.2,0.1,0.5,0.2,0.7c0.1,0.5,0.2,1.1,0.5,1.5c1.1,1.7,2.3,3.5,3.4,5.3c2.9,4.5,5.8,9,9.2,12.9
			c8.4,9.8,17.3,19.2,26.4,28.3c4.8,4.8,9.9,9.3,15,13.8l0,0c2.2,2,4.4,3.9,6.6,5.9c-0.8-0.6-1.6-1.1-2.4-1.7l0,0
			c-2.1-1.5-4.2-2.9-6-4.7c-2-2-4.1-3.9-6.1-5.9l0,0c-11.2-10.7-22.3-21.4-33-32.5c-4.6-4.7-8.6-9.9-12.7-15.2
			c-1.8-2.3-3.6-4.6-5.5-6.9l-0.2,0.2c0.5,0.7,0.9,1.5,1.4,2.3l0,0l0,0l0,0c1.1,1.7,2,3.5,3.3,5.1c3,4.2,6,8.2,9.1,12.2l0.8,1.1
			c0.3,0.4,0.6,0.7,0.9,1.1l0.3,0.4c2.2,2.9,4.4,5.8,6.6,8.6s4.4,5.8,6.6,8.6c0.6,0.7,1.1,1.4,1.8,2l0,0c2.7,3,5.4,6.1,8.1,9.1
			c0.2,0.2,0.3,0.4,0.4,0.7l0,0c0.1,0.1,0.1,0.2,0.2,0.3c-0.1-0.1-0.2-0.1-0.3-0.2c-0.2-0.1-0.4-0.2-0.6-0.3c-0.7-0.6-1.4-1.1-2-1.6
			l0,0c-1.5-1.2-3.1-2.4-4.4-3.9c-8.3-9.4-16.7-18.8-24.7-28.5c-1.2-1.5-2.4-2.9-3.7-4.3l0,0l0,0c-6-7.2-12.1-14.4-17.2-22.2
			c-7.3-11.2-14-22.7-20.7-34.3l0,0l0,0c-2.4-4.1-4.7-8.2-7.1-12.2c-1.5-2.6-3-4.8-4.4-7.1c-1.5-2.4-3.1-4.7-4.7-7.6
			c-0.2-0.4-0.5-0.8-0.8-1.3l0,0l0,0l0,0l0,0c-0.4-0.7-1-1.5-1.7-2.7c0.6,1.1,1.1,2.7,1.6,3.9l0.1,0.2c1.1,2.8,2.2,5.5,3.3,8.2
			c2,5.1,3.9,10,6,15c1.5,3.8,3.4,7.4,5.4,11c6.2,10.8,12.4,21.7,18.8,32.3c2,3.4,4.5,6.6,6.9,9.8l0,0c1.1,1.4,2.1,2.8,3.2,4.2
			c0.1,0.3,0.2,0.7,0.3,0.9c0.1,0.3,0.2,0.7,0.3,0.9c0.4,0.4,0.8,0.9,1.1,1.3l0,0l0,0c1.1,1.2,2.3,2.5,3.4,3.8c1,1.1,2,2.2,2.9,3.3
			l0,0l0,0l0,0c3,3.5,6,7,9.1,10.5c0.6,0.7,1.1,1.2,1.7,1.9l0,0c1.1,1.1,2.1,2.2,3,3.4c1.4,1.7,2.7,3.5,4,5.3
			c1.9,2.6,3.8,5.2,5.9,7.7c4.6,5.5,9.4,11.1,14.5,16.2c7,7,14.1,14,21.8,20.3c7.1,5.8,14.4,11.2,21.9,16.6c3.1,2.3,6.3,4.6,9.4,6.9
			c35.6,26.9,80.6,43.9,123.6,55.6c45.5,12.5,88.1,14.1,134.8,11c47.8-3.3,94.8-12.1,138.9-31.2c7.7-3.3,15.3-6.8,22.9-10.4
			c4.7-2.2,9.5-4.5,14-6.9c3.4-1.8,6.8-3.8,10-5.7c5.9-3.6,11.7-7.2,17.5-10.8c3.2-2,6.3-4.3,9.4-6.6c2.4-1.9,4.9-3.8,7.3-5.6
			c1.7-1.3,3.3-2.7,5.1-4c2.4-1.9,4.7-3.7,7.1-5.5l0,0c4.7-3.6,9.5-7.2,14-11c5.1-4.2,9.9-8.9,14.6-13.5c8.2-8.2,16.2-16.5,24.1-25
			c5.4-5.8,10.4-12,15.4-18.1C349.2-729.7,352-733.5,354.9-737.1z M-235.9-679.2c0,0.1,0.1,0.2,0.1,0.2c0.1,0.2,0.2,0.5,0.4,0.7
			c1.8,1.3,3.6,2.7,5.4,4c1.8,1.3,17,11.6,17,11.6s-19.7-14.4-21.1-15.6c-0.3-0.2-0.7-0.4-1.1-0.7
			C-235.5-679-235.7-679.1-235.9-679.2z M46.3-1378.3c-0.1,0.2-0.2,0.2-0.3,0.4c-0.2,0.2-0.2,0.3-0.4,0.5c0.2,0,0.2,0.1,0.3,0.1
			c0.2,0.1,0.6,0.2,0.8,0.2c1.1,0.1,2,0.1,3.1,0.2c2,0.1,4.1,0.2,6.1,0.5c4,0.5,8,0.9,12,1.2c9.9,0.9,19.9,1.8,29.4,5.2
			c0.7,0.2,1.6,0.2,2.4,0.2c0.7,0,1.4,0,2,0.2c4.5,1,9,2,13.5,2.9l0,0c3.2,0.7,6.4,1.4,9.5,2c0.8,0.2,1.7,0.3,2.6,0.4
			c1.2,0.2,2.4,0.3,3.6,0.7c1.7,0.5,3.3,1.2,5.1,2c0.7,0.3,1.5,0.7,2.2,0.9c0.2-0.3,6.9,0,10.8,0.2c1.6,0.1,2.9,0.2,2.7,0.1
			c-7-1.9-21-4.7-32.4-7.1c-5.2-1.1-9.9-2-13.1-2.7c-10.9-2.4-21.9-4.5-32.9-6c-6.2-0.9-12.6-1.2-18.8-1.5
			C51.7-1378,49-1378.1,46.3-1378.3L46.3-1378.3z M138.7-1360.6l0.7,0.2l0,0c1.5,0.5,3.1,1,4.6,1.4c0.2,0.1,0.4,0.1,0.6,0.1
			c0.1,0,0.2,0,0.2,0c-0.1-0.1-0.1-0.1-0.2-0.2c-0.1-0.2-0.2-0.2-0.4-0.3C142.4-1359.8,140.5-1360.2,138.7-1360.6z M28.1-1387.2
			c-1.9-0.1-3.8-0.2-5.7-0.2c-2.5-0.1-5.1-0.2-7.7-0.2c-0.2,0-0.5,0.1-0.7,0.1c-0.2,0-0.2,0.1-0.3,0.1c0.2,0,0.2,0.1,0.4,0.2
			c0.2,0.1,0.5,0.2,0.7,0.2c2.9,0,5.7,0,8.6,0C24.9-1387.2,26.5-1387.2,28.1-1387.2z M11.3-1362.6c-0.7-0.1-1.3-0.1-2-0.1
			c-0.2,0-0.2,0.1-0.4,0.2c-0.1,0.1-0.2,0.1-0.2,0.2l0,0C9.6-1362.5,10.4-1362.5,11.3-1362.6z M11.7-1362.6c0.6,0,1.1-0.1,1.7-0.1
			c0-0.1-0.1-0.2-0.1-0.2C12.8-1362.9,12.2-1362.8,11.7-1362.6z M405.5-1009.1v-0.9C405.5-1009.7,405.5-1009.4,405.5-1009.1z
			 M405.5-1009.1c0,0.3,0.1,0.7,0.2,1C405.5-1008.4,405.5-1008.8,405.5-1009.1z M405.5-1013.4L405.5-1013.4
			C405.5-1013.5,405.5-1013.5,405.5-1013.4z M406.4-1004.2L406.4-1004.2L406.4-1004.2z M-285.3-1246.5c-0.2,0.2-6.1,6.4-6.1,6.4
			c0.2-0.4,5.8-7.4,5.8-7.4s8.5-9,12.7-13.5c0.2-0.2,0.5-0.5,0.7-0.7l0,0c0.2-0.2,0.3-0.3,0.5-0.5c0.8-0.8,1.5-1.6,2.3-2.4
			c-0.2,0.3-0.3,0.7-0.5,1c-0.4,0.7-0.7,1.5-1.3,2.1c-3.1,3.4-6.3,6.8-9.5,10.1l0,0C-282.2-1249.9-283.7-1248.2-285.3-1246.5z
			 M-189.2-1315.7c0.2,0,0.4,0,0.7,0c-0.4,0.3-0.7,0.6-0.9,0.8c-0.2,0.2-0.5,0.4-0.7,0.6c-2.5,1.6-5,3.3-7.5,4.9
			c-0.3,0.2-0.7,0.3-1,0.4c0.1-0.1,0.1-0.2,0.2-0.3c0.1-0.2,0.2-0.4,0.3-0.6c2.7-2,5.5-3.8,8.2-5.7
			C-189.8-1315.7-189.5-1315.7-189.2-1315.7z M-218.7-1312.9c-1.1,0.7-2.1,1.5-3.1,2.1c-0.3-0.1-0.5-0.2-0.7-0.2
			c0-0.1,0.1-0.2,0.1-0.2c0.1-0.2,0.1-0.4,0.2-0.5c2-1.3,3.9-2.6,5.9-3.9c0.1-0.1,0.4-0.1,0.6,0c0.1,0,0.1,0.4,0,0.5
			C-216.6-1314.3-217.7-1313.5-218.7-1312.9z M402.8-1034.8c-0.2,0.2-0.2,0.2-0.2,0.4C402.7-1034.5,402.7-1034.6,402.8-1034.8z
			 M-260.3-1273.4c0.2,0.1,0.3,0.2,0.5,0.2c-1.1,1-2,1.9-3,2.7l0,0l0,0c-0.7,0.7-1.5,1.3-2.2,2c0,0-0.2-0.2-0.3-0.2
			c0.8-0.8,1.5-1.6,2.4-2.4s1.5-1.6,2.4-2.4C-260.6-1273.6-260.5-1273.5-260.3-1273.4z M-268.5-688.3h0.6c0.7,0.7,6.4,5.6,12.3,10.9
			l0.1,0.1l0,0l0,0l0,0c6.8,6,14.2,12.5,15.1,13.4c21.3,19.1-1.3-0.7-1.3-0.7l-21.9-18.8c-1.5-1.5-3.2-2.9-4.7-4.4
			c-0.1-0.1-0.1-0.2-0.1-0.3C-268.5-688.2-268.5-688.2-268.5-688.3z M-254.5-1283.6c0.1,0.1,0.2,0.2,0.3,0.2
			c-0.9,0.7-1.7,1.5-2.4,2.2l0,0l0,0c-0.5,0.5-1,0.9-1.5,1.3l-0.2-0.3c1.2-1.2,2.4-2.4,3.8-3.6
			C-254.6-1283.8-254.6-1283.7-254.5-1283.6z M-4.4-1361.5L-4.4-1361.5c-1.1,0.1-2.2,0.2-3.2,0.2c-1.1-0.1-2-0.2-3-0.3
			c0.4-0.1,0.7-0.2,1.1-0.2c0.9-0.2,1.8-0.3,2.7-0.4c0.5,0,1.1,0.2,1.6,0.3C-4.9-1361.6-4.7-1361.5-4.4-1361.5L-4.4-1361.5z
			 M-260.4-692.7c0.1-0.1,0.2-0.2,0.2-0.3c0.5,0.6,1,1.1,1.4,1.6l0,0c0.5,0.6,0.9,1.1,1.4,1.6l18.2,17.4c-1-0.9-20.5-19-21.5-20
			C-260.7-692.2-260.6-692.4-260.4-692.7z M-209.5-1301.6c-0.4,0.3-0.8,0.7-1.2,1c-0.2-0.2-0.3-0.4-0.2-0.4l0,0
			c1.3-0.9,2.5-1.9,3.9-2.8c0,0,0.1,0.1,0.2,0.1c0.1,0.1,0.1,0.1,0.2,0.2C-207.7-1302.9-208.6-1302.3-209.5-1301.6L-209.5-1301.6
			L-209.5-1301.6z M403.2-1032.3L403.2-1032.3L403.2-1032.3z M-249.2-1287.5C-249.2-1287.4-249.2-1287.4-249.2-1287.5l-0.1,0.2
			l-0.2,0.1l0,0c-0.5,0.4-0.9,0.8-1.3,1.1c0,0-0.2-0.1-0.3-0.2c0,0-0.1,0-0.1-0.1c0,0-0.1,0-0.1-0.1c0.2-0.2,0.3-0.3,0.5-0.4l0,0
			l0,0c0.3-0.2,0.7-0.6,1-0.8c0,0,0.2,0.1,0.4,0.2L-249.2-1287.5C-249.3-1287.5-249.3-1287.5-249.2-1287.5z M434.3-973.6
			C434.3-973.5,434.3-973.5,434.3-973.6L434.3-973.6z M419.9-1092.2L419.9-1092.2L419.9-1092.2L419.9-1092.2L419.9-1092.2z
			 M419.3-1093.9L419.3-1093.9L419.3-1093.9z M-226.1-1307.9c-0.3,0.3-0.7,0.6-1,1c0-0.1,0-0.2-0.1-0.2c0-0.2-0.1-0.2,0-0.3
			c0.5-0.5,1-1,1.5-1.5c0,0,0.2,0.2,0.3,0.2C-225.5-1308.5-225.7-1308.2-226.1-1307.9z M171.2-1349.9c0.2,0.1,0.4,0.2,0.7,0.4
			c-0.3,0-0.7,0.1-0.8,0.2c-0.2,0.1-0.5,0.1-0.7,0.1c-0.2-0.1-0.5-0.3-0.7-0.5c-0.1-0.1-0.2-0.2-0.3-0.2c0.1,0,0.1,0,0.2,0h0.1l0,0
			c0.2-0.1,0.5-0.1,0.7-0.1C170.6-1350.2,170.9-1350.1,171.2-1349.9z M-2.2-1387.1c0.2,0.1,0.3,0.2,0.5,0.3c-0.3,0-0.6,0-0.7,0
			c-0.4,0-0.7,0-1,0c-0.2,0-0.2-0.2-0.4-0.3c-0.1-0.1-0.1-0.2-0.2-0.2c0.1,0,0.2,0,0.3,0c0.2,0,0.6-0.1,0.9,0
			C-2.6-1387.4-2.5-1387.3-2.2-1387.1z M-190.5-1329c0.1,0.1,0.2,0.1,0.2,0.2c-0.1,0.1-0.2,0.2-0.2,0.2c-0.3,0.2-0.6,0.5-0.8,0.7
			c0,0-0.2-0.2-0.2-0.2c-0.1-0.1-0.1-0.2-0.2-0.2c0.1-0.1,0.2-0.2,0.2-0.2c0.2-0.2,0.5-0.3,0.7-0.5
			C-190.7-1329.1-190.6-1329.1-190.5-1329z M424.2-1073.6L424.2-1073.6c0.1,0.2,0.1,0.4,0.1,0.7c0-0.2,0-0.2,0-0.4
			C424.2-1073.5,424.2-1073.6,424.2-1073.6z M55.8-598.6c0.1,0.1,0.2,0.1,0.4,0.2c-0.1,0-0.2,0.1-0.2,0.1l0,0
			c-0.3,0.2-0.6,0.2-0.8,0.2c-0.1,0-0.2-0.1-0.2-0.2c-0.1,0-0.1-0.1-0.1-0.1c0.1,0,0.2-0.1,0.2-0.1c0.2-0.1,0.3-0.2,0.5-0.2
			C55.6-598.8,55.6-598.7,55.8-598.6z M-319.5-750.3L-319.5-750.3c0.2,0.2,0.2,0.2,0.2,0.3l0,0h-0.1c-0.1,0.1-0.2,0.2-0.2,0.2
			c-0.2-0.2-0.5-0.5-0.7-0.8c0,0,0.2-0.2,0.2-0.2c0.1,0.1,0.1,0.2,0.2,0.2c0.1,0.1,0.1,0.1,0.2,0.2l0.1,0.1l0,0l0,0L-319.5-750.3
			L-319.5-750.3z M106-1379.4c0,0.1,0,0.1,0,0.2c-0.1,0-0.2,0-0.3,0c-0.2,0-0.4,0-0.7-0.1c-0.1,0-0.2-0.1-0.3-0.2c0,0-0.1,0-0.1-0.1
			l0,0c0,0,0,0-0.1,0c0.1,0,0.2,0,0.3,0c0.2,0,0.3,0,0.5,0c0.2,0,0.3,0.1,0.5,0.1C105.9-1379.6,106-1379.5,106-1379.4
			C106-1379.5,106-1379.4,106-1379.4z M-24.5-1374.9c0.2-0.1,0.3-0.2,0.4-0.2c0.2,0.1,0.3,0.1,0.4,0.1c-0.1,0.1-0.2,0.1-0.3,0.2
			c-0.2,0.1-0.4,0.2-0.6,0.3c-0.1,0.1-0.2,0-0.3-0.1c-0.1,0-0.1-0.1-0.2-0.1C-24.8-1374.9-24.6-1374.9-24.5-1374.9z M142.7-1370.3
			L142.7-1370.3c0.2,0,0.3,0.1,0.6,0.1c-0.2,0.1-0.2,0.2-0.3,0.2c-0.2,0.2-0.3,0.2-0.4,0.2c-0.2,0-0.3-0.2-0.5-0.2l0,0
			c-0.1-0.1-0.2-0.1-0.2-0.1c0,0,0,0,0.1-0.1l0,0l0,0l0,0c0.1-0.1,0.1-0.2,0.2-0.2C142.3-1370.4,142.5-1370.3,142.7-1370.3z
			 M117.5-1376.6c0.1,0,0.2-0.1,0.3-0.1c0.2,0.1,0.5,0.2,0.7,0.2c-0.1,0-0.1,0-0.2,0.1c-0.2,0.1-0.5,0.1-0.7,0.1
			c-0.2,0-0.2,0-0.3-0.1c-0.1,0-0.2-0.1-0.2-0.1C117.1-1376.5,117.3-1376.5,117.5-1376.6L117.5-1376.6z M-272.6-692.9L-272.6-692.9
			L-272.6-692.9c0.2,0.2,0.2,0.2,0.3,0.2c-0.2,0.1,1.2,1.6,2,2.5l0,0c0.3,0.4,0.6,0.7,0.6,0.7c-0.2-0.2-3.5-3.2-3.7-3.4
			c0,0,0.2-0.3,0.3-0.3C-273-693.1-272.8-693-272.6-692.9z M-150.2-1336.3c-0.1,0.2-0.2,0.5-0.2,0.6c-0.5-0.1-0.6-0.1-0.7-0.1
			c0.1-0.1,0.1-0.1,0.2-0.2l0,0l0,0c0.1-0.2,0.2-0.2,0.3-0.3s0.2,0,0.3,0l0,0C-150.2-1336.3-150.2-1336.3-150.2-1336.3z
			 M172.7-1357.6L172.7-1357.6L172.7-1357.6c0,0.1-0.1,0.2-0.1,0.3c-0.2-0.2-0.5-0.3-0.7-0.4l-0.1-0.1c-0.1-0.1-0.2-0.2-0.2-0.2
			c0.1,0,0.1,0,0.2-0.1c0.1,0,0.2-0.1,0.2-0.1c0.2,0.1,0.5,0.2,0.7,0.3C172.7-1357.7,172.7-1357.7,172.7-1357.6z M-294.3-1236.5
			c-0.1,0.1-0.2,0.2-0.3,0.3c0,0,0,0-0.1-0.1s-0.2-0.2-0.2-0.2c0.1-0.1,0.2-0.2,0.3-0.3L-294.3-1236.5z M82.3-1383.7L82.3-1383.7
			L82.3-1383.7L82.3-1383.7c0.1,0,0.1,0.1,0.2,0.1c-0.1,0-0.1,0.1-0.2,0.1c-0.1,0.1-0.2,0.1-0.2,0.1s-0.2-0.1-0.3-0.2
			c-0.1,0-0.1-0.1-0.2-0.1c0,0,0.1,0,0.1-0.1c0.1-0.1,0.2-0.1,0.2-0.1C82.1-1383.9,82.1-1383.8,82.3-1383.7z M50.5-1386.5
			c0,0,0.1,0.1,0.2,0.1c-0.1,0-0.2,0-0.2,0.1c-0.2,0.1-0.3,0.1-0.5,0.1c-0.1,0-0.2-0.1-0.2-0.2l-0.1-0.1c0.1,0,0.2,0,0.3,0
			c0.1,0,0.2,0,0.3,0C50.3-1386.6,50.4-1386.6,50.5-1386.5z M-27.4-1390.4c0.1,0,0.2,0,0.3,0c-0.2,0.1-0.2,0.2-0.3,0.2
			c-0.2,0.1-0.2,0.2-0.3,0.2c-0.1,0-0.2,0-0.2,0c0,0-0.1,0-0.2,0c0-0.1,0.1-0.1,0.1-0.2c0.1-0.1,0.1-0.2,0.2-0.2
			C-27.8-1390.4-27.6-1390.4-27.4-1390.4z M-265.1-1271.7c0.1-0.1,0.2-0.2,0.2-0.3c0,0.1,0.1,0.1,0.1,0.1c0.1,0.1,0.1,0.2,0.1,0.2
			c-0.1,0.1-0.2,0.2-0.2,0.3c-0.1,0-0.2,0-0.2,0l0,0l0,0h-0.1C-265.2-1271.5-265.1-1271.5-265.1-1271.7z M-17-583.7h0.4
			C-16.7-583.6-16.8-583.6-17-583.7z M63.6-585.9c-0.3,0.1-0.7,0.1-1,0.2c1.4-0.4,2.5-0.9,3.6-1.5c1.5-0.9,2.9-1.5,4-2.1
			c-3.1,1.1-7.7,2.1-12.6,2c-5.5-0.1-9.1,1.1-13.1,2.4l0,0c-1.7,0.6-3.5,1.1-5.5,1.6c-6.1,0.4-12.1,0.7-18.1,0.9
			c-1.5-0.2-3.1-0.4-4.7-0.7c-18.7-2.9-26.3-1.6-30.2-0.9c-1.1,0.2-1.8,0.3-2.4,0.3c6.4,0.5,14.8,1,24,1.3
			c-7.9-0.1-15.7-0.5-23.4-1.1c-76.8-6.6-140.2-38.9-200.3-76.4c30.7,25.5,104.5,68.9,200.3,76.4c9.1,0.8,18.4,1.2,28,1.2
			c4.2,0.1,8.4,0.2,12.6,0.2c3.2,0.2,5.9,0.1,8.2-0.2c12-0.3,22.9-1.4,29.7-3.6C62.8-585.8,63.1-585.8,63.6-585.9z M72.1-587.2
			c-2.9,0.5-5.8,0.9-8.6,1.3C66.4-586.3,69.3-586.7,72.1-587.2z M32.9-582.2c-2.7,0.1-5.5,0.1-8.2,0.2c-1-0.1-2-0.2-3.1-0.2
			c5.6-0.2,11.3-0.4,17.1-0.9C36.9-582.7,35-582.4,32.9-582.2z M108.9-587.3c-73.8,18.3-126.6,13-185.7-0.7c2.6,0.2,6.6,1,12.1,2
			l0,0C-38.6-580.7,19.9-569.2,108.9-587.3z M-71.7-601.4c50.7,14.4,89.1,19.2,158.9,2.6c-75.9,17-126.2,4.9-148.6-0.5
			C-66-600.3-69.5-601.1-71.7-601.4z M-71.3-584.5c-74.2-16.6-119.1-44.9-165.9-83.6c2.3,1.4,5.6,4,10,7.6
			C-206.2-643.6-159.9-606.3-71.3-584.5z"/>
	</g>
	<g transform="matrix(1,0,0,1,92.01799774169922,506.8599853515625)" class="st1">
		<path class="st5" d="M299-952.3L242.4-1070h-18.5v174.6h18.5V-1032l49.6,101.7H306l49.4-101.7v136.7H374V-1070h-18.5L299-952.3z"
			/>
	</g>
	<g transform="matrix(1,0,0,1,298.3320007324219,506.8599853515625)" class="st1">
		<path class="st5" d="M253.1-1070l-63.5,174.6h19.5l12.6-36.3l7.3-21.4H229l31.6-91.1l20.4,58.4l11.4,32.7h-0.1l7,20.1l13.1,37.6
			H332L268.5-1070C268.5-1070,253.1-1070,253.1-1070z"/>
	</g>
	<g transform="matrix(1,0,0,1,490.6990051269531,506.8599853515625)" class="st1">
		<path class="st5" d="M270.5-929.7L180.2-1070h-18.5v174.6h18.5v-140.7l90.3,140.7H289V-1070h-18.5V-929.7z"/>
	</g>
	<g transform="matrix(1,0,0,1,668.3079833984375,506.8599853515625)" class="st1">
		<path class="st5" d="M133.6-1053.3h49.8v157.9h18.3v-157.9h49.8v-16.7H133.6V-1053.3z"/>
	</g>
	<g transform="matrix(1,0,0,1,842.2509765625,506.8599853515625)" class="st1">
		<path class="st5" d="M207.3-990c6.6-8.1,9.9-18.4,9.9-30.9c0-15.7-4.6-27.8-14-36.4c-9.3-8.5-22.2-12.7-38.6-12.7H99.9v174.6h18.4
			V-972h42l39.5,76.6H221l-41.3-78.4C191.6-976.5,200.7-981.9,207.3-990z M118.3-988v-65.3h44.8c11.5,0,20.2,2.7,26.5,8.2
			c6,5.5,9.1,13.7,9.1,24.5c0,10.5-3.1,18.5-9.4,24.1c-6.2,5.6-15,8.5-26.3,8.5H118.3z"/>
	</g>
	<g transform="matrix(1,0,0,1,1273.8699951171875,506.8599853515625)" class="st1">
		<path class="st5" d="M80.4-1070H20.7v174.6h59.7c18.6,0,33.3-5.4,44.2-16.1c10.8-10.7,16.3-27.6,16.3-50.7v-41
			c0-23.2-5.5-40-16.3-50.7C113.6-1064.6,98.9-1070,80.4-1070z M122-961.1c0,32.7-13.8,49.1-41.4,49.1H39.4v-141.2h41.2
			c13.4,0,23.6,4.1,30.7,12.1c7.2,8.1,10.8,21,10.8,38.7L122-961.1L122-961.1L122-961.1z"/>
	</g>
	<g transform="matrix(1,0,0,1,1638.9000244140625,506.6700134277344)" class="st1">
		<path class="st5" d="M57.4-1056c-10.8-10.7-25.5-16.1-43.9-16.1c-18.6,0-33.3,5.4-44.3,16.1c-10.9,10.7-16.5,27.6-16.5,50.7v45.3
			c0,23.2,5.5,40,16.3,50.7c10.8,10.7,25.6,16.1,44.2,16.1c18.4,0,33.1-5.4,44-16.1s16.5-27.6,16.5-50.7v-45.3
			C73.8-1028.4,68.4-1045.2,57.4-1056z M55.4-958.9c0,32.5-13.9,48.8-41.7,48.8c-13.8,0-24.3-3.9-31.6-11.7s-10.8-20.2-10.8-37.2
			v-45.6c0-17.9,3.6-30.8,10.6-38.8c7.1-8,17.6-12.1,31.6-12.1c27.8,0,41.7,17,41.7,50.9L55.4-958.9L55.4-958.9z"/>
	</g>
	<g transform="matrix(1,0,0,1,1457.47998046875,506.8599853515625)" class="st1">
		<path class="st5" d="M118.1-895.4L54.5-1070H39.1l-63.5,174.6h19.5l10.5-30l9.5-27.7l7.3-21.1l24.3-70l31.9,91.1h-0.1l9.1,26.4
			l10.8,31.3H118.1z"/>
	</g>
	<g transform="matrix(1,0,0,1,1018.47998046875,506.8599853515625)" class="st1">
		<path class="st5" d="M199.1-895.4L135.6-1070h-15.4L56.7-895.4h19.5l12.3-35.4l7.7-22.3H96l31.6-91.1l29,82.8l2.9,8.3l7.7,22.3
			l12.3,35.4H199.1z"/>
	</g>
</g>
<g transform="matrix(0.05999999865889549,0,0,0.05999999865889549,225.00018310546875,121)" class="st31">
	<g transform="matrix(1,0,0,1,1248.93798828125,1561.5)" class="st1">
		<path class="st32" d="M1182.1-3445.2l-75,75c59.6,93.8,78.4,211.4,37.5,323.8c-68.2,190.9-279.5,291.5-472.1,223.3
			c-27.3-10.2-52.8-22.1-75-37.5l-240.4,240.4l-209.6-211.4c-97.1,64.7-221.6,83.5-339.2,42.6c-197.7-71.6-300-288.1-228.4-484.1
			c10.2-30.7,25.6-58,42.6-83.5l-90.3-90.3l-17,28.9c-93.8,153.4-144.8,330.6-144.8,513c-1.7,543.7,441.5,988.6,985.1,988.6h1.7
			c543.7,0,985.2-441.5,986.8-985.2c0-180.7-49.4-358-143.2-513L1182.1-3445.2z"/>
	</g>
	<g transform="matrix(1,0,0,1,1247.875,726.375)" class="st1">
		<path class="st32" d="M-265.6-2410.6c-25.6,34.1-40.9,76.7-40.9,122.7c0,110.8,90.3,201.1,201.1,201.1
			c46.1,0,88.7-15.4,122.7-42.6L-265.6-2410.6z M721.2-2146.6c32.5,22.1,70,34.1,112.5,34.1c110.8,0,201.1-90.3,201.1-201.1
			c0-40.9-11.9-80.1-34.1-112.5L721.2-2146.6z M361.5-1935.2l-814.7-818.2l32.5-34c201.1-213.1,475.5-332.4,770.3-332.4h1.7
			c298.3,0,584.6,127.8,784,349.4l30.7,34L361.5-1935.2z M-320.2-2753.3l681.8,683.5l673.2-669.9
			c-180.7-180.6-426.1-284.7-681.8-284.7h-1.7C97.3-3024.4-139.5-2928.8-320.2-2753.3z"/>
	</g>
</g>
<g transform="matrix(3.700000047683716,0,0,3.700000047683716,226,122)" class="st33">
	<g transform="matrix(1,0,0,1,20,20)" class="st1">
		<path class="st34" d="M5.7-26.2c-9,0-16.3-7.3-16.3-16.4c0.1-9,7.3-16.3,16.4-16.2c9,0.1,16.2,7.3,16.2,16.5
			C22-33.5,14.7-26.2,5.7-26.2z"/>
	</g>
	<g transform="matrix(1,0,0,1,20.149999618530273,19.950000762939453)" class="st1">
		<path class="st5" d="M7.2-44.5l-0.5,2.6l4.6,0.7L11-40l-4.6-0.7c-0.3,1.1-0.5,2.2-0.9,3.2c-0.4,1.1-0.8,2.3-1.3,3.3
			c-0.7,1.4-1.8,2.4-3.3,2.6C0-31.3-1-31.4-1.7-32c-0.2-0.2-0.5-0.5-0.5-0.7c0-0.3,0.2-0.7,0.4-0.9c0.2-0.1,0.6,0,0.8,0.1
			c0.2,0.2,0.5,0.6,0.7,0.9c0.5,0.7,1.1,0.7,1.8,0.2c0.7-0.7,1.1-1.5,1.4-2.4c0.5-2,1-3.8,1.4-5.8V-41l-4.3-0.7l0.2-1.2l4.5,0.7
			l0.6-2.5l-4.6-0.7l0.2-1.3l4.8,0.7c0.2-0.5,0.2-0.9,0.4-1.3c0.4-1.5,0.8-2.9,1.8-4.2c1-1.3,2.1-2.1,3.8-2c0.7,0,1.5,0.2,2,0.8
			c0.1,0.1,0.2,0.2,0.2,0.4c0,0.3,0,0.7-0.2,1c-0.3,0.2-0.7,0.2-1.1-0.2c-0.2-0.2-0.4-0.5-0.7-0.7c-0.5-0.7-1.2-0.7-1.8-0.2
			c-0.4,0.4-0.8,1-1.1,1.5c-0.6,1.7-1,3.5-1.5,5.3l4.5,0.7l-0.3,1.2L7.2-44.5z"/>
	</g>
</g>
<g transform="matrix(6.833000183105469,0,0,6.833000183105469,215.86526489257812,110.54943084716797)" class="st18">
	<g transform="matrix(1,0,0,1,12.314000129699707,12.314000129699707)" class="st1">
		<path class="st35" d="M8.3-17.8c-0.7,0.7-1.6,0.7-2.3,0s-0.7-1.6,0-2.3c0.7-0.7,1.6-0.7,2.3,0C8.9-19.5,8.9-18.4,8.3-17.8z
			 M1.4-14.4l2.3-2.3C4-17,4.5-17,4.8-16.7c0.3,0.3,0.3,0.8,0,1.1l-2.3,2.3c-0.3,0.3-0.8,0.3-1.1,0C1.1-13.6,1.1-14,1.4-14.4z
			 M10.7-16.7l2.3,2.3c0.3,0.3,0.3,0.8,0,1.1s-0.8,0.3-1.1,0l-2.3-2.3c-0.3-0.3-0.3-0.8,0-1.1C9.8-17,10.3-17,10.7-16.7z M0.2-25.9
			c-0.7,0.7-1.6,0.7-2.3,0s-0.7-1.6,0-2.3c0.7-0.7,1.6-0.7,2.3,0C0.9-27.6,0.9-26.5,0.2-25.9z M1.4-30.5l2.3-2.3
			c0.3-0.3,0.8-0.3,1.1,0c0.3,0.3,0.3,0.8,0,1.1l-2.3,2.3c-0.3,0.3-0.8,0.3-1.1,0C1.1-29.7,1.1-30.2,1.4-30.5z M2.6-24.7l2.3,2.3
			c0.3,0.3,0.3,0.8,0,1.1c-0.3,0.3-0.8,0.3-1.1,0l-2.3-2.3c-0.3-0.3-0.3-0.8,0-1.1C1.7-25.1,2.3-25.1,2.6-24.7z M-5.5-32.8l2.3,2.3
			c0.3,0.3,0.3,0.8,0,1.1C-3.5-29-4-29-4.3-29.4l-2.4-2.3C-7-32-7-32.5-6.7-32.8S-5.8-33.1-5.5-32.8z"/>
	</g>
</g>
<g transform="matrix(0.6499999761581421,0,0,0.6499999761581421,99.15000915527344,101.33000183105469)" class="st36">
	<g transform="matrix(1,0,0,1,322.25,133.85000610351562)" class="st1">
		<path class="st5" d="M7-239.8v-0.2c0-12.6,10-23,23.5-23c13.5,0,23.4,10.3,23.4,22.8v0.2c0,12.5-10,22.9-23.6,22.9
			C16.9-217.1,7-227.3,7-239.8z M43.8-239.8v-0.2c0-7.7-5.5-14.2-13.5-14.2c-8.1,0-13.3,6.4-13.3,14v0.2c0,7.7,5.5,14.1,13.5,14.1
			C38.7-226,43.8-232.2,43.8-239.8z"/>
	</g>
	<g transform="matrix(1,0,0,1,385.70001220703125,133.9499969482422)" class="st1">
		<path class="st5" d="M-1.6-239.9v-0.2c0-12.5,9.7-23,22.9-23c8.2,0,13.5,3.1,17.6,7.6l-6.4,6.8c-3.1-3.3-6.4-5.5-11.3-5.5
			c-7.3,0-12.7,6.4-12.7,14v0.2c0,7.8,5.4,14.1,13.1,14.1c4.7,0,8.2-2.2,11.4-5.4l6.1,6c-4.3,4.8-9.4,8.2-18,8.2
			C8-217.2-1.6-227.4-1.6-239.9z"/>
	</g>
	<g transform="matrix(1,0,0,1,502.1499938964844,133.85000610351562)" class="st1">
		<path class="st5" d="M-24.1-239.9v-0.2c0-12.6,8.9-22.9,21.5-22.9c14,0,21.1,11,21.1,23.6c0,0.9-0.1,1.8-0.2,2.9H-14
			c1.1,7.2,6.2,11.2,12.6,11.2c4.9,0,8.4-1.8,11.9-5.2l6,5.2c-4.2,5-9.9,8.2-18,8.2C-14.3-217.1-24.1-226.4-24.1-239.9z M8.4-243.2
			c-0.7-6.5-4.5-11.6-11.2-11.6c-6.2,0-10.5,4.7-11.4,11.6H8.4z"/>
	</g>
	<g transform="matrix(1,0,0,1,565.2000122070312,112.0999984741211)" class="st1">
		<path class="st5" d="M-18.4-240.4h8v8.6h-8V-240.4z"/>
	</g>
	<g transform="matrix(1,0,0,1,553.0999755859375,126.80000305175781)" class="st1">
		<path class="st5" d="M-10.1-224.8v-18.3v-12.5v-11.5h-10.1v12.1h-5.5v8.6h5.5v23.2c0,9.7,5.2,12.9,12.6,12.9
			c3.8,0,6.6-0.8,9.1-2.3v-8.2c-2,1-4,1.5-6.3,1.5C-8.2-219.4-10.1-220.9-10.1-224.8z"/>
	</g>
	<g transform="matrix(1,0,0,1,446.04998779296875,133.5)" class="st1">
		<path class="st5" d="M-9.4-218.1v-43.8l8.7-0.1v15.4L12.5-262h10.8l-24,28.9L-0.7-218L-9.4-218.1L-9.4-218.1z M14.6-218.1L6-230.4
			l5.1-6.5c0,0,13.4,18.7,13.4,18.8H14.6z"/>
	</g>
	<g transform="matrix(1,0,0,1,446.1000061035156,133.5)" class="st1">
		<path class="st5" d="M25-217.7H14.4l-8.8-12.8l5.6-7.2l0.3,0.4C25-218.4,25-218.3,25-218.2C25-218.2,25-217.7,25-217.7z
			 M-0.3-217.7h-9.5v-44.6l9.5-0.1v14.8l12.6-14.8h11.9l-24.5,29.3L-0.3-217.7z"/>
	</g>
	<g transform="matrix(1,0,0,1,260.25,154.89999389648438)" class="st1">
		<path class="st5" d="M54.4-276.8c-2.4,2-5,4-7.3,6.1l-0.1,0.1c1.9,2.4,2.9,5.6,2.9,9.1v0.2c0,3.4-1.1,6.5-2.9,9
			c-0.1,0.1-0.2,0.2-0.2,0.2c-2.7,2.9-6,4.4-9.7,4.4l-13.5-0.1v36.8h7.9v-28c0,0,3.3,0.5,5,0.5c13.6,0,23.6-10.4,23.6-22.9v-0.2
			C60-267.5,57.9-272.7,54.4-276.8z"/>
	</g>
	<g transform="matrix(1,0,0,1,176.0500030517578,143.7989959716797)" class="st1">
		<path class="st5" d="M68.4-241c0,22.3-14.1,41.3-33.9,48.5v11.7c26.4-7.7,45.7-32.2,45.7-61.2s-19.3-53.4-45.7-61.2v13.5
			C54.3-282.3,68.4-263.3,68.4-241z"/>
	</g>
	<g transform="matrix(1,0,0,1,76.0999984741211,143.85000610351562)" class="st1">
		<path class="st5" d="M52.9-241.8c0,29,19.4,53.5,46,61.2v-11.8C79.1-199.8,65-218.7,65-241c0-22.3,14.1-41.3,33.9-48.5v-13.5
			C72.3-295.3,52.9-270.9,52.9-241.8z"/>
	</g>
	<g transform="matrix(1,0,0,1,111.44999694824219,220.5500030517578)" class="st1">
		<path class="st5" d="M63.5-279.3v46.9h11.7v-47.2c-1.6,1.4-3.8,2.2-6,2.2C67-277.4,65-278.2,63.5-279.3z"/>
	</g>
	<g transform="matrix(1,0,0,1,144.64999389648438,155.89999389648438)" class="st1">
		<path class="st5" d="M75.9-272.4c-3.7,2.9-7.3,6-10.8,9.1c-0.1,0-0.1,0.1-0.2,0.1c2.8,3.7,4.4,8.3,4.4,13.4v0.2
			c0,5.1-1.5,9.7-4.3,13.3c-0.1,0.1-0.2,0.2-0.2,0.3c-4,4.4-8.8,6.6-14.4,6.6c0,0-3.8,0-8.2-0.1c2,1.7,3.3,4.3,3.3,7.1
			c0,2.3-0.8,4.3-2.1,6c1.6,0.2,4.4,0.5,6,0.5c20.1,0,35-15.4,35-34v-0.2C84.2-258.6,81.1-266.4,75.9-272.4z"/>
	</g>
	<g transform="matrix(1,0,0,1,140.85000610351562,67.05000305175781)" class="st1">
		<path class="st5" d="M69.7-204.4v-46.9H58.1v47.2c1.6-1.4,3.8-2.2,6-2.2C66.2-206.2,68.2-205.6,69.7-204.4z"/>
	</g>
	<g transform="matrix(1,0,0,1,107.55000305175781,131.6999969482422)" class="st1">
		<path class="st5" d="M57.4-211.5c3.7-2.9,7.3-6,10.8-9.1c0.1,0,0.1-0.1,0.2-0.1c-2.8-3.7-4.4-8.3-4.4-13.4v-0.2
			c0-5.1,1.5-9.7,4.3-13.3c0.1-0.1,0.2-0.2,0.2-0.3c4-4.4,8.8-6.6,14.4-6.6c0,0,3.8,0,8.2,0.1c-2-1.7-3.3-4.3-3.3-7.1
			c0-2.3,0.8-4.3,2.1-6c-1.6-0.2-4.4-0.5-6-0.5c-20.1,0-35,15.4-35,34v0.2C49-225.2,52.1-217.4,57.4-211.5z"/>
	</g>
	<g transform="matrix(1,0,0,1,141.10000610351562,104.9000015258789)" class="st1">
		<path class="st5" d="M63.9-228c2.4,0,4.4-1.2,5.6-3c0.7-1.1,1.1-2.4,1.1-3.8s-0.4-2.7-1.1-3.8c-1.2-1.8-3.3-3-5.6-3
			c-3.8,0-6.8,3-6.8,6.8S60.2-228,63.9-228z"/>
	</g>
	<g transform="matrix(1,0,0,1,111.0999984741211,183)" class="st1">
		<path class="st5" d="M69.4-255.9c-2.4,0-4.4,1.2-5.6,3c-0.7,1.1-1.1,2.4-1.1,3.8s0.4,2.7,1.1,3.8c1.2,1.8,3.3,3,5.6,3
			c3.8,0,6.8-3,6.8-6.8S73.2-255.9,69.4-255.9z"/>
	</g>
</g>
</svg>
