<svg width="48" height="48" viewBox="0 0 48 48" fill="none" xmlns="http://www.w3.org/2000/svg">
                  <path d="M24 3L6 9V27C6 36.9422 14.0578 45 24 45C33.9422 45 42 36.9422 42 27V9L24 3ZM38.625 27C38.625 35.0766 32.0766 41.625 24 41.625C15.9234 41.625 9.375 35.0766 9.375 27V11.5312L24 6.375L38.625 11.5312V27Z" fill="#DC5C5C" />
                  <path d="M17.7375 22.2703C17.5811 22.1132 17.3952 21.9885 17.1904 21.9034C16.9857 21.8184 16.7662 21.7746 16.5445 21.7746C16.3228 21.7746 16.1033 21.8184 15.8986 21.9034C15.6939 21.9885 15.5079 22.1132 15.3515 22.2703C15.1944 22.4267 15.0697 22.6126 14.9847 22.8173C14.8996 23.0221 14.8558 23.2416 14.8558 23.4633C14.8558 23.685 14.8996 23.9045 14.9847 24.1092C15.0697 24.3139 15.1944 24.4998 15.3515 24.6562L21.4172 30.7218L21.5156 30.8203C21.6636 30.9685 21.8393 31.0861 22.0327 31.1663C22.2262 31.2466 22.4335 31.2879 22.643 31.2879C22.8524 31.2879 23.0597 31.2466 23.2532 31.1663C23.4466 31.0861 23.6224 30.9685 23.7703 30.8203L34.2469 20.3437C34.3951 20.1958 34.5127 20.0201 34.5929 19.8266C34.6732 19.6332 34.7145 19.4258 34.7145 19.2164C34.7145 19.007 34.6732 18.7996 34.5929 18.6062C34.5127 18.4127 34.3951 18.237 34.2469 18.0891L34.1156 17.9578C33.9677 17.8096 33.792 17.692 33.5985 17.6118C33.4051 17.5315 33.1977 17.4902 32.9883 17.4902C32.7789 17.4902 32.5715 17.5315 32.378 17.6118C32.1846 17.692 32.0089 17.8096 31.8609 17.9578L22.6406 27.1734L17.7375 22.2703Z" fill="#DC5C5C" />
                </svg>