<svg width="48" height="48" viewBox="0 0 48 48" fill="none" xmlns="http://www.w3.org/2000/svg">
                  <path d="M20 24C20 21.8 21.8 20 24 20C26.2 20 28 21.8 28 24C28 26.2 26.2 28 24 28C21.8 28 20 26.2 20 24ZM15.6 35.4L12.6 32.6L15.6 29.6C14.6 28 14 26 14 24C14 22 14.6 20 15.6 18.6L12.6 15.6L15.6 12.6L18.4 15.6C20 14.6 22 14 24 14C26 14 28 14.6 29.6 15.6L32.6 12.6L35.4 15.4L32.4 18.4C33.4 20 34 22 34 24C34 26 33.4 28 32.4 29.6L35.4 32.6L32.6 35.4L29.6 32.4C28 33.4 26 34 24 34C22 34 20 33.4 18.6 32.4L15.6 35.4ZM24 18C20.6 18 18 20.6 18 24C18 27.4 20.6 30 24 30C27.4 30 30 27.4 30 24C30 20.6 27.4 18 24 18ZM40 4C42.2 4 44 5.8 44 8V40C44 42.2 42.2 44 40 44H38V46H30V44H18V46H10V44H8C5.8 44 4 42.2 4 40V8C4 5.8 5.8 4 8 4H40ZM40 40V8H8V40H40Z" fill="#DC5C5C" />
                </svg>